<?xml version="1.0" encoding="utf-8"?>
<!-- Generator: Adobe Illustrator 27.1.0, SVG Export Plug-In . SVG Version: 6.00 Build 0)  -->
<svg version="1.1" id="Calque_1" xmlns="http://www.w3.org/2000/svg" xmlns:xlink="http://www.w3.org/1999/xlink" x="0px" y="0px"
	 viewBox="0 0 10.9 8.2" style="enable-background:new 0 0 10.9 8.2;" xml:space="preserve">
<style type="text/css">
	.st0{fill:#5865F2;}
</style>
<path class="st0" d="M7.2,5.6c-0.5,0-1-0.5-1-1.1c0-0.6,0.4-1.1,1-1.1c0.5,0,1,0.5,1,1.1C8.2,5.1,7.8,5.6,7.2,5.6 M3.6,5.6
	c-0.5,0-1-0.5-1-1.1c0-0.6,0.4-1.1,1-1.1c0.5,0,1,0.5,1,1.1C4.6,5.1,4.2,5.6,3.6,5.6 M9.2,0.7C8.5,0.4,7.7,0.1,7,0
	C6.9,0.2,6.8,0.4,6.7,0.6C5.8,0.5,5,0.5,4.2,0.6C4.1,0.4,4,0.2,3.9,0C3.1,0.1,2.4,0.4,1.7,0.7C0.2,2.8-0.1,4.8,0,6.9
	C1,7.5,1.9,8,2.8,8.2C3,7.9,3.2,7.6,3.4,7.3C3.1,7.2,2.8,7,2.5,6.8c0.1-0.1,0.2-0.1,0.2-0.2c1.8,0.8,3.7,0.8,5.5,0
	c0.1,0.1,0.1,0.1,0.2,0.2C8.1,7,7.8,7.2,7.5,7.3c0.2,0.3,0.4,0.7,0.6,0.9C9,8,9.9,7.5,10.8,6.9C11,4.5,10.4,2.5,9.2,0.7"/>
</svg>
