<?xml version="1.0" encoding="utf-8"?>
<!-- Generator: Adobe Illustrator 27.1.0, SVG Export Plug-In . SVG Version: 6.00 Build 0)  -->
<svg version="1.1" id="Calque_1" xmlns="http://www.w3.org/2000/svg" xmlns:xlink="http://www.w3.org/1999/xlink" x="0px" y="0px"
	 viewBox="0 0 234.7 263.5" style="enable-background:new 0 0 234.7 263.5;" xml:space="preserve">
<style type="text/css">
	.st0{fill:#FCCE5C;}
	.st1{fill:none;stroke:#FFFFFF;stroke-miterlimit:10;}
	.st2{fill:#FFFFFF;}
	.st3{fill:#8FB0F3;}
	.st4{opacity:0.7;fill:#FFFFFF;}
	.st5{opacity:0.2;fill:#FCCE5C;}
	.st6{fill:#FFFFFF;stroke:#222226;stroke-width:0.5;stroke-miterlimit:10;}
	.st7{fill:#3B49A8;}
	.st8{fill:#222226;}
	.st9{fill:none;stroke:#222226;stroke-width:0.5;stroke-miterlimit:10;}
	.st10{fill:#808080;}
	.st11{fill:none;stroke:#FFFFFF;stroke-width:0.2;stroke-miterlimit:10;}
	.st12{fill:#54BBC0;}
	.st13{fill:#8FB0F0;}
	.st14{fill:#FACC65;}
	.st15{filter:url(#Adobe_OpacityMaskFilter);}
	.st16{mask:url(#SVGID_1_);fill:#FCCE5C;}
	.st17{filter:url(#Adobe_OpacityMaskFilter_00000132068055424368521630000012100980848717414311_);}
	.st18{mask:url(#SVGID_00000064332344777514862970000003635060356827545007_);fill:#8FB0F0;}
	.st19{filter:url(#Adobe_OpacityMaskFilter_00000177445253883054165590000015425435976221942182_);}
	.st20{mask:url(#SVGID_00000021111295796199012290000009067736212476314802_);fill:#54BBC0;}
	.st21{fill:#FFCB4E;}
	.st22{fill:#87B2F7;}
	.st23{fill:#18BEC1;}
</style>
<g>
	<g>
		<path class="st0" d="M160.8,41.9c0-0.9,0.1-1.5,0.3-2c0.2-0.5,0.4-0.8,0.7-0.9l4.2-1.5l-2,2.1l14-38.1c0.1-0.4,0.4-0.7,0.9-1
			c0.5-0.2,1-0.4,1.5-0.4c0.5-0.1,1-0.1,1.4-0.1s0.8,0,1.2,0.1c0.4,0,0.8,0.1,1.2,0.2l15.2,39.2l-2.3-1.9l5.9,1.3
			c0,0.6-0.1,1.2-0.3,1.6c-0.2,0.4-0.5,0.9-1,1.4h-14.8c0-0.9,0.1-1.5,0.3-2c0.2-0.5,0.4-0.8,0.7-0.9l4.5-1.3l-0.5,1.7L178.7,5.5
			l2-0.1l-12.5,34.2l-0.3-2.2l6.3,1.4c0,0.6-0.1,1.2-0.3,1.6c-0.2,0.4-0.5,0.9-1.1,1.4H160.8z M170.9,28.7l0.8-3.6H188l0.9,3.6
			H170.9z"/>
		<path class="st0" d="M212.4,42.7c-2,0-3.6-0.6-4.9-1.8c-1.3-1.2-2-2.8-2-4.7c0-2.4,0.8-4.4,2.4-6c1.6-1.6,3.9-2.7,7-3.4l8.4-1.9
			l-0.8,0.8v-4.4c0-2.2-0.3-3.8-1-4.8c-0.7-1-1.8-1.5-3.3-1.5c-1.8,0-3.2,0.6-4.1,1.7c-0.9,1.1-1.4,2.8-1.5,5.1
			c-0.3,0.3-0.6,0.5-1.1,0.6c-0.5,0.2-1,0.3-1.5,0.3c-0.9,0-1.7-0.3-2.2-0.8c-0.5-0.5-0.8-1.2-0.8-2c0-1.4,0.5-2.7,1.6-3.8
			c1.1-1.1,2.5-2,4.4-2.6c1.9-0.6,3.9-1,6.2-1c3.4,0,6,0.8,7.7,2.5c1.7,1.6,2.6,4.1,2.6,7.5v14.1c0,0.8,0.1,1.3,0.4,1.7
			c0.3,0.4,0.7,0.5,1.3,0.5c0.5,0,1-0.1,1.5-0.3c0.5-0.2,0.9-0.4,1.3-0.6l0.6,2.2c-0.8,0.9-1.8,1.5-3.1,2s-2.4,0.8-3.5,0.8
			c-1.6,0-2.9-0.5-3.8-1.4c-0.9-0.9-1.3-2.2-1.3-3.9h-0.3c-1.2,1.6-2.8,2.9-4.6,3.8C216.2,42.2,214.3,42.7,212.4,42.7z M215.9,38.7
			c1.3,0,2.7-0.4,4-1.1c1.3-0.7,2.5-1.7,3.4-2.9l-0.6,1.5v-8.9l1,0.1l-6.8,1.7c-1.6,0.3-2.9,1-3.7,1.9c-0.9,0.9-1.3,2.1-1.3,3.5
			c0,1.3,0.4,2.4,1.1,3.1C213.6,38.3,214.6,38.7,215.9,38.7z"/>
	</g>
	<rect x="85.3" y="25.1" class="st1" width="140.8" height="140.8"/>
	<circle class="st0" cx="155.7" cy="95.6" r="70.4"/>
	<g>
		<rect x="83.4" y="23.2" class="st2" width="3.9" height="3.9"/>
	</g>
	<g>
		<rect x="224.2" y="23.2" class="st2" width="3.9" height="3.9"/>
	</g>
	<g>
		<circle class="st3" cx="117.4" cy="25.1" r="17.6"/>
		<g>
			<path class="st4" d="M119.6,14v11.2c0,0.6-0.2,1.1-0.7,1.6c-0.4,0.4-1,0.7-1.6,0.7c-0.6,0-1.1-0.2-1.6-0.7
				c-0.4-0.4-0.7-1-0.7-1.6V14H119.6z"/>
			<path class="st4" d="M124.9,16.6l-5.6,9.7c-0.3,0.5-0.7,0.9-1.3,1c-0.6,0.2-1.2,0.1-1.7-0.2c-0.5-0.3-0.9-0.8-1-1.4
				c-0.2-0.6-0.1-1.2,0.2-1.7l5.6-9.7L124.9,16.6z"/>
			<path class="st4" d="M128.1,21.5l-9.7,5.6c-0.5,0.3-1.1,0.4-1.7,0.2c-0.6-0.2-1.1-0.5-1.4-1c-0.3-0.5-0.4-1.1-0.2-1.7
				c0.2-0.6,0.5-1,1-1.3l9.7-5.6L128.1,21.5z"/>
			<path class="st4" d="M128.5,27.4h-11.2c-0.6,0-1.1-0.2-1.6-0.7c-0.4-0.4-0.7-1-0.7-1.6c0-0.6,0.2-1.1,0.7-1.6
				c0.4-0.4,1-0.7,1.6-0.7h11.2V27.4z"/>
			<path class="st4" d="M109.8,16.6l5.6,9.7c0.3,0.5,0.7,0.9,1.3,1c0.6,0.2,1.2,0.1,1.7-0.2c0.5-0.3,0.9-0.8,1-1.4
				c0.2-0.6,0.1-1.2-0.2-1.7l-5.6-9.7L109.8,16.6z"/>
			<path class="st4" d="M106.6,21.5l9.7,5.6c0.5,0.3,1.1,0.4,1.7,0.2c0.6-0.2,1.1-0.5,1.4-1c0.3-0.5,0.4-1.1,0.2-1.7
				c-0.2-0.6-0.5-1-1-1.3l-9.7-5.6L106.6,21.5z"/>
			<path class="st4" d="M106.2,27.4h11.2c0.6,0,1.1-0.2,1.6-0.7c0.4-0.4,0.7-1,0.7-1.6c0-0.6-0.2-1.1-0.7-1.6
				c-0.4-0.4-1-0.7-1.6-0.7h-11.2V27.4z"/>
			<path class="st4" d="M119.6,36.3V25.1c0-0.6-0.2-1.1-0.7-1.6c-0.4-0.4-1-0.7-1.6-0.7c-0.6,0-1.1,0.2-1.6,0.7
				c-0.4,0.4-0.7,1-0.7,1.6v11.2H119.6z"/>
			<path class="st4" d="M124.9,33.7l-5.6-9.7c-0.3-0.5-0.7-0.9-1.3-1c-0.6-0.2-1.2-0.1-1.7,0.2c-0.5,0.3-0.9,0.8-1,1.4
				c-0.2,0.6-0.1,1.2,0.2,1.7l5.6,9.7L124.9,33.7z"/>
			<path class="st4" d="M128.1,28.8l-9.7-5.6c-0.5-0.3-1.1-0.4-1.7-0.2c-0.6,0.2-1.1,0.5-1.4,1c-0.3,0.5-0.4,1.1-0.2,1.7
				c0.2,0.6,0.5,1,1,1.3l9.7,5.6L128.1,28.8z"/>
			<path class="st4" d="M109.8,33.7l5.6-9.7c0.3-0.5,0.7-0.9,1.3-1c0.6-0.2,1.2-0.1,1.7,0.2c0.5,0.3,0.9,0.8,1,1.4
				c0.2,0.6,0.1,1.2-0.2,1.7l-5.6,9.7L109.8,33.7z"/>
			<path class="st4" d="M106.6,28.8l9.7-5.6c0.5-0.3,1.1-0.4,1.7-0.2c0.6,0.2,1.1,0.5,1.4,1c0.3,0.5,0.4,1.1,0.2,1.7
				c-0.2,0.6-0.5,1-1,1.3l-9.7,5.6L106.6,28.8z"/>
		</g>
	</g>
	<g>
		<path class="st2" d="M204.7,230.6H30c-16.6,0-30-13.4-30-30V88.5c0-16.6,13.4-30,30-30h174.7c16.6,0,30,13.4,30,30v112.1
			C234.7,217.2,221.3,230.6,204.7,230.6z"/>
	</g>
	<path class="st5" d="M204.7,230.6H30c-16.6,0-30-13.4-30-30V88.5c0-16.6,13.4-30,30-30h174.7c16.6,0,30,13.4,30,30v112.1
		C234.7,217.2,221.3,230.6,204.7,230.6z"/>
	<path class="st6" d="M211,156h-84.1c-2.8,0-5-2.2-5-5V92c0-2.8,2.2-5,5-5H211c2.8,0,5,2.2,5,5v59C216,153.8,213.7,156,211,156z"/>
	<path class="st7" d="M45.6,92.2c-0.2,0-0.3,0-0.4-0.1c-0.1-0.1-0.1-0.2-0.1-0.3c0-0.2,0-0.4,0.1-0.8c0.1-0.4,0.2-0.8,0.3-1.3
		c0.1-0.5,0.2-1,0.3-1.6c0.1-0.6,0.2-1.1,0.3-1.6c0.1-0.5,0.1-1,0.1-1.4l0.4,0.6c0,0-0.1,0-0.2-0.1c-0.1,0-0.2,0-0.4,0
		c-0.2,0-0.3,0-0.5,0c-0.2,0-0.4,0.1-0.6,0.2l-0.2-0.4c0.3-0.3,0.6-0.5,1-0.7c0.4-0.2,0.7-0.2,0.9-0.2c0.3,0,0.6,0.1,0.7,0.3
		c0.2,0.2,0.2,0.4,0.2,0.7c0,0.1,0,0.2,0,0.3c0,0.1,0,0.2,0,0.3h0.1c0.4-0.5,0.8-0.9,1.3-1.1c0.4-0.3,0.9-0.4,1.3-0.4
		c0.4,0,0.7,0.1,0.9,0.3c0.2,0.2,0.4,0.4,0.6,0.7c0.1,0.3,0.2,0.6,0.2,1c0,0.4,0,0.8-0.1,1.2c-0.1,0.4-0.2,0.8-0.3,1.2
		c-0.1,0.4-0.2,0.7-0.3,1.1s-0.1,0.7-0.1,0.9c0,0.2,0.1,0.4,0.4,0.4c0.1,0,0.2,0,0.3-0.1c0.1,0,0.3-0.1,0.4-0.2l0.2,0.4
		c-0.2,0.2-0.4,0.4-0.6,0.5C51.4,91.9,51.2,92,51,92c-0.2,0.1-0.4,0.1-0.6,0.1c-0.3,0-0.5-0.1-0.7-0.3c-0.2-0.2-0.2-0.5-0.2-0.8
		c0-0.5,0.1-1,0.2-1.5c0.2-0.5,0.3-1,0.5-1.6c0.2-0.5,0.2-1.1,0.2-1.6c0-0.3-0.1-0.6-0.2-0.7c-0.1-0.2-0.3-0.2-0.6-0.2
		c-0.3,0-0.6,0.1-1,0.3c-0.3,0.2-0.7,0.5-1.1,0.9l-0.8,4.9l0-1l0.3,1.5c-0.2,0.1-0.4,0.2-0.6,0.2C46,92.1,45.8,92.2,45.6,92.2z
		 M55.9,92.2c-0.8,0-1.4-0.2-1.8-0.7c-0.4-0.5-0.6-1.2-0.6-2.1c0-0.7,0.1-1.3,0.3-1.9c0.2-0.6,0.5-1.2,0.9-1.6
		c0.4-0.5,0.9-0.9,1.4-1.1c0.5-0.3,1.1-0.4,1.6-0.4c0.8,0,1.4,0.3,1.9,0.8c0.5,0.5,0.7,1.2,0.7,2.1c0,0.7-0.1,1.3-0.4,1.9
		c-0.2,0.6-0.6,1.1-1,1.6c-0.4,0.5-0.9,0.8-1.4,1.1C57.1,92,56.5,92.2,55.9,92.2z M56.5,91.5c0.4,0,0.8-0.2,1.1-0.6
		c0.3-0.4,0.6-0.9,0.8-1.5c0.2-0.6,0.3-1.3,0.3-2.1c0-0.8-0.1-1.4-0.4-1.8c-0.2-0.4-0.6-0.6-1-0.6c-0.3,0-0.6,0.1-0.9,0.3
		c-0.3,0.2-0.5,0.5-0.7,0.9c-0.2,0.4-0.4,0.8-0.5,1.3c-0.1,0.5-0.2,1-0.2,1.6c0,0.8,0.1,1.4,0.4,1.8C55.7,91.3,56,91.5,56.5,91.5z
		 M45.9,112.1c-0.3,0-0.5-0.1-0.7-0.3c-0.2-0.2-0.2-0.5-0.2-0.9c0-0.2,0-0.6,0.1-1.1c0.1-0.5,0.2-1.2,0.3-1.9
		c0.1-0.7,0.3-1.5,0.4-2.4c0.2-0.9,0.3-1.8,0.5-2.7c0.2-0.9,0.3-1.8,0.4-2.7l0.3,0.7c-0.1,0-0.2-0.1-0.3-0.1c-0.1,0-0.2,0-0.3,0
		c-0.2,0-0.3,0-0.5,0.1c-0.2,0-0.4,0.1-0.6,0.2l-0.2-0.4c0.3-0.3,0.6-0.5,1-0.7c0.3-0.2,0.7-0.2,0.9-0.2c0.3,0,0.5,0.1,0.7,0.3
		c0.2,0.2,0.2,0.4,0.2,0.7c0,0.2,0,0.5-0.1,1c-0.1,0.5-0.2,1-0.3,1.6s-0.2,1.3-0.4,2c-0.1,0.7-0.2,1.4-0.4,2.1
		c-0.1,0.7-0.2,1.3-0.3,1.8c-0.1,0.5-0.1,1-0.1,1.3c0,0.3,0.1,0.4,0.4,0.4c0.1,0,0.2,0,0.3-0.1c0.1,0,0.3-0.1,0.4-0.2l0.2,0.4
		c-0.2,0.2-0.4,0.4-0.6,0.5c-0.2,0.1-0.4,0.3-0.7,0.3C46.3,112.1,46.1,112.1,45.9,112.1z M51.4,112.1c-0.8,0-1.4-0.2-1.8-0.7
		c-0.4-0.5-0.6-1.2-0.6-2.1c0-0.7,0.1-1.3,0.3-1.9c0.2-0.6,0.5-1.2,0.9-1.6c0.4-0.5,0.9-0.9,1.4-1.1c0.5-0.3,1.1-0.4,1.6-0.4
		c0.8,0,1.4,0.3,1.9,0.8c0.5,0.5,0.7,1.2,0.7,2.1c0,0.7-0.1,1.3-0.4,1.9c-0.2,0.6-0.6,1.1-1,1.6c-0.4,0.5-0.9,0.8-1.4,1.1
		C52.5,112,52,112.1,51.4,112.1z M51.9,111.5c0.4,0,0.8-0.2,1.1-0.6c0.3-0.4,0.6-0.9,0.8-1.5c0.2-0.6,0.3-1.3,0.3-2.1
		c0-0.8-0.1-1.4-0.4-1.8c-0.2-0.4-0.6-0.6-1-0.6c-0.3,0-0.6,0.1-0.9,0.3c-0.3,0.2-0.5,0.5-0.7,0.9c-0.2,0.4-0.4,0.8-0.5,1.3
		c-0.1,0.5-0.2,1-0.2,1.6c0,0.8,0.1,1.4,0.4,1.8C51.2,111.3,51.5,111.5,51.9,111.5z M59.4,112.1c-0.1,0-0.2,0-0.3,0
		c-0.1,0-0.2-0.1-0.3-0.1c-0.1-0.8-0.2-1.6-0.3-2.4c-0.1-0.8-0.3-1.6-0.4-2.4c-0.2-0.8-0.3-1.5-0.5-2.3l0.6,0.6
		c-0.1-0.1-0.3-0.1-0.6-0.1c-0.3,0-0.7,0.1-1.1,0.2l-0.2-0.4c0.3-0.3,0.6-0.5,1-0.7c0.3-0.2,0.7-0.2,0.9-0.2c0.3,0,0.6,0.1,0.7,0.2
		c0.1,0.1,0.2,0.4,0.3,0.7c0.1,0.7,0.3,1.3,0.4,2c0.1,0.7,0.2,1.4,0.3,2c0.1,0.7,0.2,1.4,0.3,2.1l-0.3,0c0.3-0.6,0.6-1.1,0.8-1.7
		c0.3-0.6,0.5-1.2,0.7-1.7c0.2-0.6,0.4-1.2,0.6-1.8c0.2-0.6,0.4-1.2,0.5-1.8c0.3,0,0.5,0,0.7,0.1c0.2,0.1,0.2,0.2,0.3,0.4
		c0,0.1,0,0.2-0.1,0.4c-0.1,0.2-0.1,0.5-0.3,0.8c-0.1,0.3-0.3,0.7-0.4,1.1c-0.2,0.4-0.4,0.8-0.6,1.3c-0.4,0.8-0.7,1.4-0.9,1.9
		c-0.2,0.5-0.5,0.9-0.7,1.2c-0.2,0.3-0.4,0.5-0.5,0.6C59.8,112.1,59.6,112.1,59.4,112.1z M63.5,112.1c-0.1,0-0.2,0-0.3,0
		c-0.1,0-0.2-0.1-0.3-0.1c-0.1-0.8-0.2-1.5-0.4-2.3c-0.1-0.8-0.3-1.6-0.5-2.4l0.9-2.1c0.2,1,0.4,2,0.6,3c0.2,1,0.4,2,0.5,3.1l-0.2,0
		c0.2-0.4,0.5-0.9,0.7-1.4c0.2-0.5,0.4-0.9,0.6-1.4c0.2-0.5,0.4-0.9,0.5-1.4c0.2-0.5,0.3-1,0.4-1.4l-0.1,0.9l-0.3-2.1
		c0.2-0.1,0.3-0.2,0.5-0.2c0.2,0,0.4-0.1,0.5-0.1c0.2,0,0.4,0,0.6,0.1c0.1,0.1,0.2,0.2,0.2,0.4c0,0.1,0,0.2-0.1,0.4
		c-0.1,0.2-0.2,0.5-0.3,0.8c-0.1,0.3-0.3,0.7-0.4,1.1c-0.2,0.4-0.4,0.8-0.6,1.3c-0.4,0.8-0.7,1.4-0.9,1.9c-0.2,0.5-0.5,0.9-0.7,1.2
		c-0.2,0.3-0.4,0.5-0.5,0.6C63.9,112.1,63.7,112.1,63.5,112.1z M43.1,136.2c-0.3,0-0.6-0.1-0.8-0.2c-0.2-0.2-0.3-0.4-0.3-0.7
		c0-0.1,0-0.3,0.1-0.4c0-0.1,0.1-0.3,0.1-0.4c0.2,0.2,0.4,0.3,0.6,0.4c0.2,0.1,0.5,0.1,0.7,0.1c0.3,0,0.5-0.1,0.7-0.2
		c0.2-0.1,0.3-0.3,0.4-0.5c0.1-0.2,0.2-0.5,0.2-0.8l1-8.9c0.1-1.1,0.4-2,0.7-2.7c0.3-0.7,0.7-1.3,1.2-1.7c0.5-0.4,1-0.6,1.6-0.6
		c0.4,0,0.7,0.1,0.9,0.2c0.2,0.2,0.3,0.4,0.3,0.7c0,0.1,0,0.3,0,0.4c0,0.1-0.1,0.3-0.1,0.4c-0.2-0.2-0.4-0.3-0.6-0.4
		c-0.2-0.1-0.5-0.1-0.7-0.1c-0.3,0-0.5,0.1-0.7,0.2c-0.2,0.1-0.4,0.3-0.5,0.6c-0.1,0.3-0.2,0.6-0.2,1l-0.9,7.5
		c-0.1,1-0.3,1.9-0.5,2.6c-0.2,0.7-0.5,1.4-0.8,1.9c-0.3,0.5-0.7,0.9-1,1.1C44,136.1,43.5,136.2,43.1,136.2z M48.7,125.7l-4.2-0.2
		c0-0.2,0.1-0.4,0.2-0.5c0.1-0.1,0.2-0.2,0.3-0.3l4.4-0.3c0,0.1,0,0.3-0.1,0.5c0,0.2-0.1,0.4-0.2,0.5
		C49,125.5,48.9,125.6,48.7,125.7z M51.8,132.1c-0.4,0-0.7-0.1-1-0.2c-0.3-0.2-0.4-0.4-0.6-0.7c-0.1-0.3-0.2-0.6-0.2-0.9
		c0-0.3,0.1-0.7,0.2-1.2c0.1-0.5,0.2-1,0.4-1.5c0.1-0.5,0.3-1,0.4-1.5c0.1-0.4,0.2-0.8,0.2-1.1l0.4,0.5c-0.1,0-0.1-0.1-0.2-0.1
		c-0.1,0-0.2,0-0.3,0c-0.2,0-0.4,0-0.5,0c-0.2,0-0.4,0.1-0.6,0.2l-0.2-0.4c0.3-0.3,0.6-0.5,1-0.7c0.3-0.2,0.6-0.2,0.9-0.2
		c0.4,0,0.6,0.1,0.8,0.3c0.2,0.2,0.2,0.4,0.2,0.7c0,0.3,0,0.6-0.1,1.1c-0.1,0.4-0.2,0.9-0.3,1.4c-0.1,0.5-0.2,1-0.3,1.4
		s-0.1,0.8-0.1,1.1c0,0.3,0.1,0.5,0.2,0.7c0.1,0.1,0.4,0.2,0.6,0.2c0.4,0,0.7-0.1,1.1-0.3c0.4-0.2,0.8-0.5,1.1-0.9l0.2,0.7h-0.4
		c-0.4,0.5-0.8,0.9-1.3,1.2C52.7,132,52.2,132.1,51.8,132.1z M55.4,132.1c-0.3,0-0.5-0.1-0.7-0.3c-0.2-0.2-0.2-0.5-0.2-0.9
		c0-0.2,0-0.5,0.1-0.9c0.1-0.4,0.2-0.8,0.3-1.3c0.1-0.5,0.2-0.9,0.3-1.4c0.1-0.5,0.2-0.9,0.3-1.3c0.1-0.4,0.1-0.8,0.2-1.1l0.4,0.5
		c-0.1,0-0.1-0.1-0.2-0.1c-0.1,0-0.2,0-0.4,0c-0.2,0-0.3,0-0.5,0c-0.2,0-0.4,0.1-0.5,0.2l-0.2-0.4c0.3-0.3,0.6-0.5,1-0.7
		c0.3-0.2,0.6-0.2,0.9-0.2c0.4,0,0.6,0.1,0.8,0.3c0.2,0.2,0.2,0.4,0.2,0.7c0,0.2,0,0.5-0.1,0.9c-0.1,0.4-0.1,0.8-0.2,1.2
		s-0.2,0.9-0.3,1.3c-0.1,0.4-0.2,0.8-0.3,1.2c-0.1,0.3-0.1,0.6-0.1,0.8c0,0.3,0.1,0.4,0.3,0.4c0.1,0,0.2,0,0.4-0.1
		c0.1,0,0.3-0.1,0.4-0.2l0.2,0.4c-0.2,0.2-0.4,0.4-0.6,0.5c-0.2,0.1-0.4,0.3-0.7,0.3C55.7,132.1,55.5,132.1,55.4,132.1z M59.9,132.1
		c-0.3,0-0.5-0.1-0.7-0.3c-0.2-0.2-0.2-0.5-0.2-0.9c0-0.2,0-0.6,0.1-1.1c0.1-0.5,0.2-1.2,0.3-1.9c0.1-0.7,0.3-1.5,0.4-2.4
		c0.2-0.9,0.3-1.8,0.5-2.7c0.2-0.9,0.3-1.8,0.4-2.7l0.3,0.7c-0.1,0-0.2-0.1-0.3-0.1c-0.1,0-0.2,0-0.3,0c-0.2,0-0.3,0-0.5,0
		c-0.2,0-0.4,0.1-0.6,0.2l-0.2-0.4c0.3-0.3,0.6-0.5,1-0.7c0.3-0.2,0.7-0.2,0.9-0.2c0.3,0,0.5,0.1,0.7,0.3c0.2,0.2,0.2,0.4,0.2,0.7
		c0,0.2,0,0.5-0.1,1c-0.1,0.5-0.2,1-0.3,1.6s-0.2,1.3-0.4,2c-0.1,0.7-0.2,1.4-0.4,2.1c-0.1,0.7-0.2,1.3-0.3,1.8
		c-0.1,0.5-0.1,1-0.1,1.3c0,0.3,0.1,0.4,0.4,0.4c0.1,0,0.2,0,0.3-0.1c0.1,0,0.3-0.1,0.4-0.2l0.2,0.4c-0.2,0.2-0.4,0.4-0.6,0.5
		c-0.2,0.1-0.4,0.3-0.7,0.3C60.3,132.1,60.1,132.1,59.9,132.1z M64.4,132.1c-0.3,0-0.5-0.1-0.7-0.3c-0.2-0.2-0.2-0.5-0.2-0.9
		c0-0.2,0-0.6,0.1-1.1c0.1-0.5,0.2-1.2,0.3-1.9c0.1-0.7,0.3-1.5,0.4-2.4c0.2-0.9,0.3-1.8,0.5-2.7c0.2-0.9,0.3-1.8,0.4-2.7l0.3,0.7
		c-0.1,0-0.2-0.1-0.3-0.1c-0.1,0-0.2,0-0.3,0c-0.2,0-0.3,0-0.5,0c-0.2,0-0.4,0.1-0.6,0.2l-0.2-0.4c0.3-0.3,0.6-0.5,1-0.7
		c0.3-0.2,0.7-0.2,0.9-0.2c0.3,0,0.5,0.1,0.7,0.3c0.2,0.2,0.2,0.4,0.2,0.7c0,0.2,0,0.5-0.1,1c-0.1,0.5-0.2,1-0.3,1.6
		c-0.1,0.6-0.2,1.3-0.4,2c-0.1,0.7-0.2,1.4-0.4,2.1c-0.1,0.7-0.2,1.3-0.3,1.8c-0.1,0.5-0.1,1-0.1,1.3c0,0.3,0.1,0.4,0.4,0.4
		c0.1,0,0.2,0,0.3-0.1c0.1,0,0.3-0.1,0.4-0.2l0.2,0.4c-0.2,0.2-0.4,0.4-0.6,0.5c-0.2,0.1-0.4,0.3-0.7,0.3
		C64.8,132.1,64.6,132.1,64.4,132.1z M84,128.1c0,1.3-0.4,2.3-1.1,2.9c-0.7,0.7-1.8,1-3.3,1c-1.1,0-2.1-0.2-3.1-0.6
		c-1-0.4-1.8-0.9-2.6-1.5c-0.7-0.6-1.3-1.4-1.8-2.2c-0.4-0.8-0.6-1.7-0.6-2.7c0-1,0.2-1.8,0.7-2.4c0.5-0.6,1.1-0.9,1.8-0.9
		c0.5,0,0.9,0.1,1.2,0.4c0.3,0.3,0.4,0.6,0.4,1.1c0,0.2,0,0.5-0.1,0.8c-0.5-0.1-0.9-0.2-1.3-0.2c-1.2,0-1.9,0.5-1.9,1.5
		c0,0.7,0.3,1.4,0.9,2c0.6,0.6,1.4,1.1,2.4,1.5c1,0.4,2.1,0.6,3.3,0.6c1.1,0,1.9-0.2,2.5-0.7c0.6-0.5,0.9-1.1,0.9-1.9
		c0-0.6-0.2-1.3-0.5-1.9c-0.3-0.6-0.9-1.2-1.6-1.8l0.7-0.6C83.1,124.3,84,126.1,84,128.1z M84,116.8c0,1.2-0.4,2.2-1.2,2.8
		c-0.8,0.7-1.9,1-3.2,1c-1.1,0-2.1-0.2-3-0.6c-1-0.4-1.8-0.9-2.6-1.5c-0.8-0.6-1.3-1.4-1.8-2.2c-0.4-0.8-0.6-1.7-0.6-2.6
		c0-1.2,0.4-2.2,1.2-2.9c0.8-0.7,1.9-1.1,3.3-1.1c1,0,2,0.2,3,0.6c0.9,0.4,1.8,0.9,2.5,1.5c0.7,0.7,1.3,1.4,1.8,2.2
		C83.8,115,84,115.9,84,116.8z M83,116c0-0.7-0.3-1.3-0.9-1.8c-0.6-0.5-1.4-1-2.4-1.3c-1-0.3-2.1-0.5-3.2-0.5
		c-1.2,0-2.1,0.2-2.8,0.6c-0.7,0.4-1,0.9-1,1.6c0,0.5,0.2,0.9,0.5,1.4c0.3,0.4,0.8,0.8,1.4,1.1c0.6,0.3,1.3,0.6,2.1,0.8
		c0.8,0.2,1.6,0.3,2.5,0.3c1.2,0,2.1-0.2,2.8-0.6C82.6,117.2,83,116.7,83,116z M84,104.8c0,1.1-0.4,1.9-1.1,2.5
		c-0.7,0.6-1.8,0.9-3.3,0.9c-1.1,0-2.2-0.2-3.1-0.5c-1-0.3-1.8-0.8-2.6-1.4c-0.7-0.6-1.3-1.3-1.7-2.2c-0.4-0.8-0.6-1.7-0.6-2.6
		c0-0.5,0.1-1,0.2-1.5c0.1-0.5,0.3-0.9,0.6-1.3l0.8,0.2c-0.2,0.4-0.3,0.7-0.4,1.1c-0.1,0.4-0.2,0.8-0.2,1.2c0,0.7,0.2,1.3,0.5,1.9
		c0.4,0.6,0.9,1,1.5,1.4c0.6,0.4,1.4,0.7,2.2,0.9c0.8,0.2,1.7,0.3,2.6,0.3c0.7,0,1.3-0.1,1.7-0.2c0.5-0.1,0.8-0.4,1.1-0.6
		c0.3-0.3,0.4-0.6,0.4-1.1c0-0.8-0.4-1.5-1.3-2c-0.8-0.5-2-1-3.6-1.3c-1.5-0.4-3.3-0.7-5.3-1c-2-0.3-4.2-0.6-6.6-1l0.6-0.7
		c-0.1,0.1-0.1,0.3-0.1,0.4c0,0.2,0,0.3,0,0.5c0,0.3,0,0.5,0.1,0.8c0.1,0.3,0.1,0.6,0.3,0.9l-0.7,0.4c-0.5-0.5-0.8-1-1.1-1.6
		c-0.3-0.6-0.4-1-0.4-1.5c0-0.5,0.1-0.9,0.4-1.1c0.3-0.2,0.6-0.4,1-0.4c0.3,0,0.8,0.1,1.5,0.2c0.7,0.1,1.6,0.3,2.6,0.5
		c1,0.2,2.1,0.4,3.2,0.6c1.1,0.2,2.2,0.4,3.3,0.6c1.1,0.2,2.1,0.3,2.9,0.4c0.9,0.1,1.5,0.2,2,0.2c0.2,0,0.4,0,0.5-0.1
		c0.1-0.1,0.2-0.2,0.2-0.4c0-0.2,0-0.4-0.1-0.6c-0.1-0.2-0.2-0.4-0.3-0.6l0.7-0.4c0.4,0.4,0.8,0.9,1.1,1.5c0.3,0.5,0.4,1,0.4,1.5
		c0,0.4-0.1,0.7-0.4,0.9c-0.3,0.2-0.6,0.3-1.1,0.4c-0.3,0-0.6,0.1-0.8,0.1c-0.3,0-0.5,0-0.7-0.1v0.1c1,0.4,1.7,0.9,2.3,1.6
		C83.8,103.2,84,104,84,104.8z M84,90.7c0,1.4-0.4,2.4-1.2,3c-0.8,0.7-1.8,1-3.2,1c-1,0-2-0.2-3-0.5c-1-0.3-1.8-0.8-2.6-1.5
		c-0.8-0.6-1.4-1.4-1.8-2.2c-0.4-0.9-0.7-1.8-0.7-2.8c0-1.1,0.2-1.9,0.7-2.5c0.5-0.6,1.1-0.9,1.9-0.9c0.9,0,1.7,0.3,2.4,1
		c0.7,0.7,1.3,1.7,1.7,3c0.4,1.3,0.6,2.9,0.6,4.7L78,92.9c0-0.8-0.1-1.6-0.2-2.3c-0.1-0.7-0.4-1.4-0.7-2c-0.3-0.6-0.7-1.1-1.2-1.4
		c-0.5-0.3-1.1-0.5-1.8-0.5c-0.5,0-0.9,0.1-1.2,0.4c-0.3,0.3-0.4,0.6-0.4,1.1c0,0.6,0.2,1.2,0.6,1.7c0.4,0.5,0.9,0.9,1.6,1.3
		c0.7,0.3,1.4,0.6,2.2,0.8c0.8,0.2,1.6,0.3,2.3,0.3c1,0,1.8-0.2,2.4-0.7c0.6-0.4,0.9-1.1,0.9-1.9c0-0.6-0.2-1.3-0.5-1.9
		c-0.3-0.6-0.9-1.2-1.6-1.8l0.7-0.6c0.9,0.7,1.7,1.5,2.1,2.4C83.8,88.7,84,89.7,84,90.7z"/>
	<path class="st8" d="M158.6,189.2h1.5l-0.8,3.1h3.1l0.8-3.1h1.5l-0.8,3.1h2.3v1.6h-2.7l-0.8,3.1h1.9v1.6h-2.3l-0.8,3.1h-1.6
		l0.8-3.1h-3.1l-0.8,3.1h-1.6l0.8-3.1H154v-1.6h2.7l0.8-3.1h-1.9v-1.6h2.3L158.6,189.2z M159,193.8l-0.8,3.1h3.1l0.8-3.1H159z"/>
	<g>
		<circle class="st8" cx="129.2" cy="91.7" r="1.2"/>
		<circle class="st8" cx="132.2" cy="91.7" r="1.2"/>
		<circle class="st8" cx="126.1" cy="91.7" r="1.2"/>
	</g>
	<line class="st9" x1="122" y1="95.6" x2="215.8" y2="95.6"/>
	<g>
		<path class="st10" d="M208.1,167.6v-24.1c0-1.1,0.9-2,2-2h11.7c1.1,0,2,0.9,2,2v24.1c0,1.1-0.9,2-2,2h-11.7
			C209,169.6,208.1,168.7,208.1,167.6z"/>
		<circle class="st2" cx="216" cy="156" r="3.9"/>
		<g>
			<circle class="st2" cx="211.1" cy="143.3" r="0.5"/>
			<circle class="st2" cx="212.5" cy="143.3" r="0.5"/>
			<circle class="st2" cx="209.6" cy="143.3" r="0.5"/>
		</g>
		<line class="st11" x1="208.1" y1="145" x2="223.8" y2="145"/>
	</g>
	<g>
		<path class="st10" d="M139.3,105.9H151c4.3,0,7.8,3.5,7.8,7.8v0c0,4.3-3.5,7.8-7.8,7.8h-11.7c-4.3,0-7.8-3.5-7.8-7.8v0
			C131.5,109.4,135,105.9,139.3,105.9z"/>
		<circle class="st12" cx="150.9" cy="113.8" r="5.9"/>
	</g>
	<g>
		<path class="st10" d="M151,140.2h-11.7c-4.3,0-7.8-3.5-7.8-7.8v0c0-4.3,3.5-7.8,7.8-7.8H151c4.3,0,7.8,3.5,7.8,7.8v0
			C158.8,136.7,155.3,140.2,151,140.2z"/>
		<g>
			<circle class="st2" cx="139.4" cy="132.4" r="5.9"/>
		</g>
	</g>
	<path class="st12" d="M163,123.3l4.3-3.7h1.6l-4.3,3.7l4.3,3.7h-1.6L163,123.3z M170.2,128.1l4.3-10.6h1.1l-4.3,10.6H170.2z
		 M178.9,128.2c-0.4,0-0.8-0.1-1.1-0.2c-0.3-0.1-0.6-0.3-0.7-0.5c-0.2-0.2-0.3-0.4-0.3-0.7c0-0.2,0.1-0.4,0.2-0.6s0.4-0.3,0.7-0.3
		c0.1,0,0.2,0,0.3,0c0.1,0,0.2,0,0.2,0.1c0,0.1,0,0.1,0,0.2s0,0.1,0,0.2c0,0.3,0.1,0.6,0.2,0.8s0.4,0.3,0.7,0.3
		c0.3,0,0.5-0.1,0.6-0.2c0.2-0.1,0.2-0.3,0.2-0.5c0-0.2-0.1-0.4-0.3-0.6c-0.2-0.2-0.4-0.3-0.6-0.5s-0.5-0.3-0.8-0.5
		c-0.3-0.2-0.5-0.4-0.6-0.6s-0.3-0.5-0.3-0.8c0-0.4,0.1-0.7,0.3-1c0.2-0.3,0.5-0.5,0.9-0.6c0.4-0.2,0.8-0.2,1.3-0.2
		c0.4,0,0.7,0.1,1,0.2c0.3,0.1,0.5,0.3,0.7,0.5c0.2,0.2,0.3,0.5,0.3,0.8c0,0.2-0.1,0.4-0.2,0.6s-0.3,0.2-0.6,0.2c-0.1,0-0.2,0-0.3,0
		c-0.1,0-0.2,0-0.3-0.1c0-0.1,0-0.1,0-0.2c0-0.1,0-0.1,0-0.2c0-0.3-0.1-0.6-0.2-0.8c-0.1-0.2-0.3-0.3-0.6-0.3
		c-0.2,0-0.4,0.1-0.6,0.2c-0.2,0.1-0.2,0.3-0.2,0.5c0,0.2,0.1,0.4,0.3,0.6c0.2,0.2,0.4,0.3,0.6,0.5c0.3,0.2,0.5,0.3,0.8,0.5
		c0.3,0.2,0.5,0.4,0.6,0.6c0.2,0.2,0.3,0.5,0.3,0.8c0,0.3-0.1,0.7-0.4,0.9c-0.2,0.3-0.5,0.5-0.9,0.6
		C179.8,128.1,179.3,128.2,178.9,128.2z M186.1,123.5l-3.5-0.1c0-0.2,0.1-0.4,0.2-0.5c0.1-0.2,0.2-0.3,0.3-0.3l3.6-0.2
		c0,0.1,0,0.3-0.1,0.4c0,0.2-0.1,0.3-0.2,0.5C186.3,123.3,186.2,123.4,186.1,123.5z M184,128.2c-0.4,0-0.7-0.1-0.9-0.3
		c-0.2-0.2-0.3-0.5-0.3-1c0-0.1,0-0.2,0-0.3s0-0.3,0.1-0.6c0-0.2,0.1-0.6,0.2-1c0.1-0.4,0.2-0.9,0.3-1.5c0.1-0.6,0.2-1.3,0.4-2.1
		c0.2-0.2,0.5-0.4,0.8-0.5c0.3-0.1,0.6-0.2,0.9-0.2c-0.1,0.8-0.3,1.5-0.4,2.2c-0.1,0.6-0.2,1.2-0.3,1.6c-0.1,0.5-0.1,0.8-0.2,1.1
		c0,0.3-0.1,0.5-0.1,0.7c0,0.2,0,0.3,0,0.3c0,0.3,0.2,0.5,0.5,0.5c0.2,0,0.3,0,0.5-0.1c0.2-0.1,0.4-0.2,0.5-0.3l0.2,0.4
		c-0.2,0.2-0.4,0.4-0.6,0.6c-0.2,0.2-0.5,0.3-0.7,0.4C184.5,128.2,184.3,128.2,184,128.2z M186.4,131.4c-0.1,0-0.2,0-0.3-0.1
		s-0.2-0.2-0.2-0.4c0-0.2-0.1-0.4-0.1-0.8c0.5,0,0.9,0,1.2-0.1c0.3-0.1,0.6-0.2,0.9-0.4c0.3-0.2,0.5-0.4,0.7-0.8
		c0.2-0.3,0.4-0.7,0.6-1.2l-0.2,0.9c-0.2-1.1-0.4-2.1-0.7-3.1c-0.2-1-0.5-1.9-0.8-2.8l0.7,0.6c-0.1,0-0.1-0.1-0.2-0.1
		c-0.1,0-0.2,0-0.3,0c-0.3,0-0.6,0.1-0.9,0.2l-0.2-0.4c0.3-0.2,0.6-0.4,0.9-0.6s0.6-0.2,0.8-0.2c0.3,0,0.5,0.1,0.7,0.2
		c0.1,0.1,0.2,0.4,0.3,0.8c0.1,0.4,0.2,0.9,0.3,1.4c0.1,0.5,0.2,1,0.3,1.4s0.2,1,0.3,1.5l-0.8,0.4c0.3-0.5,0.5-1,0.7-1.5
		s0.4-1,0.6-1.5s0.4-1,0.5-1.6l-0.2,1.1l-0.3-1.9c0.2-0.1,0.3-0.2,0.6-0.2s0.4-0.1,0.6-0.1c0.2,0,0.4,0,0.5,0.1s0.2,0.2,0.2,0.4
		c0,0.1,0,0.1-0.1,0.3c0,0.1-0.1,0.3-0.2,0.5s-0.2,0.5-0.3,0.8c-0.1,0.3-0.3,0.7-0.5,1.1c-0.5,1-0.9,1.9-1.3,2.6
		c-0.4,0.8-0.8,1.4-1.2,1.9s-0.8,0.9-1.2,1.2C187.3,131.3,186.9,131.4,186.4,131.4z M194.1,128.2c-0.3,0-0.5-0.1-0.7-0.3
		s-0.2-0.4-0.2-0.8c0-0.2,0-0.5,0.1-0.9c0.1-0.4,0.1-0.9,0.2-1.4s0.2-1.1,0.3-1.8c0.1-0.6,0.2-1.3,0.4-2c0.1-0.7,0.2-1.3,0.3-2
		l0.6,0.6c-0.1,0-0.1-0.1-0.2-0.1c-0.1,0-0.2,0-0.3,0c-0.2,0-0.3,0-0.5,0.1c-0.2,0-0.3,0.1-0.5,0.2l-0.2-0.5
		c0.3-0.2,0.6-0.4,0.9-0.6s0.6-0.2,0.9-0.2c0.3,0,0.5,0.1,0.6,0.3c0.1,0.2,0.2,0.4,0.2,0.6c0,0.1,0,0.4-0.1,0.7
		c-0.1,0.3-0.1,0.8-0.2,1.2s-0.2,1-0.3,1.5c-0.1,0.5-0.2,1-0.3,1.5c-0.1,0.5-0.2,0.9-0.2,1.3s-0.1,0.7-0.1,0.9
		c0,0.3,0.1,0.4,0.3,0.4c0.1,0,0.2,0,0.3-0.1c0.1,0,0.2-0.1,0.3-0.1l0.3,0.5c-0.1,0.2-0.3,0.3-0.5,0.4c-0.2,0.1-0.4,0.2-0.6,0.3
		C194.4,128.2,194.2,128.2,194.1,128.2z M198.6,128.2c-0.7,0-1.2-0.2-1.6-0.6c-0.4-0.4-0.5-0.9-0.5-1.6c0-0.5,0.1-1,0.3-1.5
		s0.4-0.9,0.8-1.3s0.7-0.7,1.1-0.9s0.9-0.3,1.4-0.3c0.6,0,1,0.1,1.3,0.4s0.5,0.6,0.5,1c0,0.5-0.2,0.9-0.5,1.2
		c-0.3,0.3-0.8,0.6-1.5,0.8c-0.6,0.2-1.4,0.3-2.3,0.3l0-0.5c0.4,0,0.7,0,1.1-0.1s0.6-0.2,0.9-0.3s0.4-0.3,0.6-0.6s0.2-0.5,0.2-0.8
		c0-0.2-0.1-0.4-0.2-0.5c-0.1-0.1-0.3-0.2-0.4-0.2c-0.2,0-0.5,0.1-0.7,0.3c-0.2,0.2-0.4,0.4-0.5,0.7c-0.2,0.3-0.3,0.6-0.3,1
		c-0.1,0.4-0.1,0.7-0.1,1.1c0,0.5,0.1,0.8,0.3,1.1c0.2,0.3,0.5,0.4,0.9,0.4c0.3,0,0.6-0.1,0.9-0.2c0.3-0.2,0.6-0.4,0.9-0.7l0.3,0.4
		c-0.4,0.5-0.8,0.8-1.2,1.1C199.7,128.1,199.2,128.2,198.6,128.2z M208.1,123.3l-4.3,3.7h-1.6l4.3-3.7l-4.3-3.7h1.6L208.1,123.3z"/>
	<path class="st7" d="M207.2,103h-38.6c-0.5,0-0.9-0.4-0.9-0.9l0,0c0-0.5,0.4-0.9,0.9-0.9h38.6c0.5,0,0.9,0.4,0.9,0.9l0,0
		C208.1,102.6,207.7,103,207.2,103z"/>
	<path class="st7" d="M207.2,106h-38.6c-0.5,0-0.9-0.4-0.9-0.9l0,0c0-0.5,0.4-0.9,0.9-0.9h38.6c0.5,0,0.9,0.4,0.9,0.9l0,0
		C208.1,105.6,207.7,106,207.2,106z"/>
	<path class="st7" d="M197.3,109.2h-28.7c-0.5,0-0.9-0.4-0.9-0.9l0,0c0-0.5,0.4-0.9,0.9-0.9h28.7c0.5,0,0.9,0.4,0.9,0.9l0,0
		C198.3,108.8,197.9,109.2,197.3,109.2z"/>
	<path class="st7" d="M189.6,112.5h-21c-0.5,0-0.9-0.4-0.9-0.9v0c0-0.5,0.4-0.9,0.9-0.9h21c0.5,0,0.9,0.4,0.9,0.9v0
		C190.5,112.1,190.1,112.5,189.6,112.5z"/>
	<path class="st7" d="M168.6,149.1h28.7c0.5,0,0.9,0.4,0.9,0.9v0c0,0.5-0.4,0.9-0.9,0.9h-28.7c-0.5,0-0.9-0.4-0.9-0.9v0
		C167.7,149.5,168.1,149.1,168.6,149.1z"/>
	<path class="st7" d="M175.9,145.8h21.4c0.5,0,0.9,0.4,0.9,0.9l0,0c0,0.5-0.4,0.9-0.9,0.9h-21.4c-0.5,0-0.9-0.4-0.9-0.9l0,0
		C175,146.2,175.4,145.8,175.9,145.8z"/>
	
		<rect x="152.3" y="207.4" transform="matrix(0.7071 -0.7071 0.7071 0.7071 -111.6786 191.6692)" class="st7" width="46.4" height="46.4"/>
	
		<rect x="195.5" y="207.3" transform="matrix(0.7071 -0.7071 0.7071 0.7071 -90.4379 201.7052)" class="st12" width="5.5" height="5.5"/>
	<path class="st8" d="M164.3,140.6c-0.4,0-0.8-0.1-1-0.4c-0.2-0.2-0.3-0.6-0.3-1c0-0.3,0.1-0.7,0.2-1c0.1-0.3,0.3-0.6,0.5-0.8
		c0.2-0.2,0.5-0.4,0.7-0.6c0.3-0.1,0.6-0.2,0.9-0.2c0.4,0,0.6,0.1,0.8,0.2c0.2,0.2,0.3,0.4,0.3,0.6c0,0.2-0.1,0.3-0.2,0.4
		c-0.1,0.1-0.3,0.2-0.4,0.2c-0.1,0-0.2,0-0.3,0c0-0.1,0.1-0.3,0.1-0.4c0-0.4-0.1-0.6-0.4-0.6c-0.2,0-0.4,0.1-0.6,0.3
		c-0.2,0.2-0.3,0.4-0.4,0.7s-0.2,0.6-0.2,1c0,0.3,0.1,0.6,0.2,0.7s0.3,0.3,0.5,0.3c0.2,0,0.4,0,0.6-0.1s0.4-0.3,0.6-0.5l0.2,0.3
		C165.6,140.3,165,140.6,164.3,140.6z M168,140.6c-0.4,0-0.8-0.1-1-0.4c-0.2-0.3-0.4-0.6-0.4-1c0-0.3,0.1-0.7,0.2-1
		c0.1-0.3,0.3-0.6,0.5-0.8c0.2-0.2,0.5-0.4,0.7-0.6c0.3-0.1,0.6-0.2,0.9-0.2c0.4,0,0.8,0.1,1,0.4c0.2,0.3,0.4,0.6,0.4,1
		c0,0.3-0.1,0.7-0.2,1c-0.1,0.3-0.3,0.6-0.5,0.8c-0.2,0.2-0.5,0.4-0.8,0.6C168.7,140.6,168.4,140.6,168,140.6z M168.3,140.2
		c0.2,0,0.3-0.1,0.5-0.3c0.1-0.2,0.3-0.4,0.4-0.7c0.1-0.3,0.1-0.6,0.1-1c0-0.4-0.1-0.6-0.2-0.9c-0.1-0.2-0.3-0.3-0.4-0.3
		c-0.1,0-0.3,0.1-0.4,0.2c-0.1,0.1-0.2,0.3-0.3,0.4c-0.1,0.2-0.2,0.4-0.2,0.6c-0.1,0.2-0.1,0.5-0.1,0.8c0,0.4,0.1,0.6,0.2,0.9
		C168,140.1,168.2,140.2,168.3,140.2z M171.5,140.6c-0.1,0-0.2,0-0.3-0.1c0-0.1-0.1-0.1-0.1-0.2s0-0.2,0.1-0.4
		c0-0.2,0.1-0.4,0.1-0.7c0.1-0.3,0.1-0.5,0.2-0.8c0.1-0.3,0.1-0.5,0.1-0.8c0-0.3,0.1-0.5,0.1-0.7l0.4,0.4c0,0-0.1,0-0.1,0
		c-0.1,0-0.1,0-0.2,0c-0.1,0-0.2,0-0.3,0c-0.1,0-0.2,0.1-0.4,0.1l-0.1-0.3c0.2-0.2,0.4-0.3,0.6-0.4s0.4-0.1,0.6-0.1
		c0.2,0,0.3,0.1,0.4,0.2c0.1,0.1,0.1,0.2,0.1,0.4c0,0,0,0.1,0,0.1s0,0.1,0,0.1h0c0.2-0.2,0.4-0.4,0.6-0.6s0.4-0.2,0.6-0.2
		s0.4,0,0.5,0.1c0.1,0.1,0.2,0.2,0.3,0.4c0.1,0.1,0.1,0.3,0.1,0.5c0,0.2,0,0.4-0.1,0.6c0,0.2-0.1,0.4-0.2,0.6
		c-0.1,0.2-0.1,0.4-0.2,0.5c0,0.2-0.1,0.3-0.1,0.4c0,0.1,0.1,0.2,0.2,0.2c0,0,0.1,0,0.2,0c0.1,0,0.1,0,0.2-0.1l0.2,0.3
		c-0.1,0.1-0.2,0.2-0.3,0.3c-0.1,0.1-0.3,0.1-0.4,0.2c-0.1,0-0.3,0.1-0.4,0.1c-0.2,0-0.3-0.1-0.4-0.2s-0.1-0.3-0.1-0.5
		c0-0.2,0-0.5,0.1-0.7c0.1-0.3,0.1-0.5,0.2-0.8s0.1-0.5,0.1-0.7c0-0.1,0-0.3-0.1-0.3c-0.1-0.1-0.1-0.1-0.2-0.1c-0.1,0-0.3,0-0.4,0.1
		c-0.1,0.1-0.3,0.2-0.5,0.4l-0.4,2.3l0-0.5l0.2,0.9c-0.1,0.1-0.3,0.1-0.4,0.1C171.8,140.6,171.7,140.6,171.5,140.6z M176.8,140.6
		c-0.3,0-0.5,0-0.7-0.1s-0.4-0.2-0.5-0.3c-0.1-0.1-0.2-0.3-0.2-0.5c0-0.1,0-0.3,0.1-0.4s0.3-0.2,0.5-0.2c0.1,0,0.1,0,0.2,0
		c0.1,0,0.1,0,0.1,0.1c0,0,0,0.1,0,0.1c0,0,0,0.1,0,0.1c0,0.2,0,0.4,0.1,0.5s0.3,0.2,0.4,0.2c0.2,0,0.3,0,0.4-0.1
		c0.1-0.1,0.2-0.2,0.2-0.4c0-0.1-0.1-0.3-0.2-0.4c-0.1-0.1-0.3-0.2-0.4-0.3c-0.2-0.1-0.3-0.2-0.5-0.3c-0.2-0.1-0.3-0.2-0.4-0.4
		s-0.2-0.3-0.2-0.5c0-0.2,0.1-0.4,0.2-0.6c0.1-0.2,0.3-0.3,0.6-0.4c0.3-0.1,0.5-0.2,0.8-0.2c0.2,0,0.5,0,0.7,0.1
		c0.2,0.1,0.3,0.2,0.5,0.3c0.1,0.1,0.2,0.3,0.2,0.5c0,0.2,0,0.3-0.1,0.4s-0.2,0.1-0.4,0.1c-0.1,0-0.1,0-0.2,0c-0.1,0-0.1,0-0.2-0.1
		c0,0,0-0.1,0-0.1c0,0,0-0.1,0-0.1c0-0.2,0-0.4-0.1-0.5c-0.1-0.1-0.2-0.2-0.4-0.2c-0.1,0-0.3,0-0.4,0.1c-0.1,0.1-0.1,0.2-0.1,0.3
		c0,0.1,0.1,0.3,0.2,0.4c0.1,0.1,0.3,0.2,0.4,0.3c0.2,0.1,0.3,0.2,0.5,0.3c0.2,0.1,0.3,0.2,0.4,0.4c0.1,0.1,0.2,0.3,0.2,0.5
		c0,0.2-0.1,0.4-0.2,0.6c-0.2,0.2-0.4,0.3-0.6,0.4C177.4,140.6,177.1,140.6,176.8,140.6z M180.5,140.6c-0.4,0-0.8-0.1-1-0.4
		s-0.4-0.6-0.4-1c0-0.3,0.1-0.7,0.2-1c0.1-0.3,0.3-0.6,0.5-0.8c0.2-0.2,0.5-0.4,0.7-0.6c0.3-0.1,0.6-0.2,0.9-0.2
		c0.4,0,0.8,0.1,1,0.4c0.2,0.3,0.4,0.6,0.4,1c0,0.3-0.1,0.7-0.2,1c-0.1,0.3-0.3,0.6-0.5,0.8c-0.2,0.2-0.5,0.4-0.8,0.6
		C181.1,140.6,180.8,140.6,180.5,140.6z M180.8,140.2c0.2,0,0.3-0.1,0.5-0.3c0.1-0.2,0.3-0.4,0.4-0.7c0.1-0.3,0.1-0.6,0.1-1
		c0-0.4-0.1-0.6-0.2-0.9c-0.1-0.2-0.3-0.3-0.4-0.3c-0.1,0-0.3,0.1-0.4,0.2c-0.1,0.1-0.2,0.3-0.3,0.4c-0.1,0.2-0.2,0.4-0.2,0.6
		c-0.1,0.2-0.1,0.5-0.1,0.8c0,0.4,0.1,0.6,0.2,0.9C180.5,140.1,180.6,140.2,180.8,140.2z M184.2,140.6c-0.2,0-0.3-0.1-0.4-0.2
		c-0.1-0.1-0.2-0.3-0.2-0.5c0-0.1,0-0.3,0.1-0.6c0-0.3,0.1-0.6,0.2-0.9c0.1-0.4,0.1-0.7,0.2-1.2s0.1-0.8,0.2-1.3
		c0.1-0.4,0.1-0.9,0.2-1.3l0.4,0.4c0,0-0.1,0-0.1-0.1c-0.1,0-0.1,0-0.2,0c-0.1,0-0.2,0-0.3,0c-0.1,0-0.2,0.1-0.3,0.1l-0.1-0.3
		c0.2-0.2,0.4-0.3,0.6-0.4s0.4-0.1,0.6-0.1c0.2,0,0.3,0.1,0.4,0.2c0.1,0.1,0.1,0.2,0.1,0.4c0,0.1,0,0.3-0.1,0.5s-0.1,0.5-0.1,0.8
		c-0.1,0.3-0.1,0.6-0.2,1c-0.1,0.3-0.1,0.7-0.2,1c-0.1,0.3-0.1,0.6-0.1,0.9c0,0.3-0.1,0.5-0.1,0.6c0,0.2,0.1,0.3,0.2,0.3
		c0,0,0.1,0,0.2,0c0.1,0,0.1,0,0.2-0.1l0.2,0.3c-0.1,0.1-0.2,0.2-0.3,0.3c-0.1,0.1-0.3,0.1-0.4,0.2
		C184.4,140.6,184.3,140.6,184.2,140.6z M187.1,140.6c-0.5,0-0.8-0.1-1-0.4c-0.2-0.2-0.3-0.6-0.3-1c0-0.3,0.1-0.7,0.2-1
		s0.3-0.6,0.5-0.8c0.2-0.2,0.5-0.4,0.8-0.6c0.3-0.1,0.6-0.2,0.9-0.2c0.4,0,0.7,0.1,0.9,0.2s0.3,0.4,0.3,0.6c0,0.3-0.1,0.6-0.3,0.8
		s-0.5,0.4-1,0.5c-0.4,0.1-0.9,0.2-1.5,0.2l0-0.3c0.3,0,0.5,0,0.7-0.1c0.2,0,0.4-0.1,0.6-0.2c0.2-0.1,0.3-0.2,0.4-0.4
		c0.1-0.1,0.1-0.3,0.1-0.5c0-0.1,0-0.3-0.1-0.3c-0.1-0.1-0.2-0.1-0.3-0.1c-0.2,0-0.3,0.1-0.4,0.2c-0.1,0.1-0.3,0.3-0.3,0.5
		c-0.1,0.2-0.2,0.4-0.2,0.6c0,0.2-0.1,0.5-0.1,0.7c0,0.3,0.1,0.5,0.2,0.7c0.1,0.2,0.3,0.3,0.6,0.3c0.2,0,0.4-0.1,0.6-0.2
		c0.2-0.1,0.4-0.3,0.6-0.5l0.2,0.3c-0.2,0.3-0.5,0.5-0.8,0.7C187.8,140.6,187.5,140.6,187.1,140.6z M189.9,140.6
		c-0.2,0-0.3,0-0.4-0.1c-0.1-0.1-0.1-0.2-0.1-0.3c0-0.1,0-0.3,0.1-0.4c0.1-0.1,0.2-0.2,0.3-0.2c0.1-0.1,0.2-0.1,0.3-0.1
		c0.2,0,0.3,0,0.4,0.1c0.1,0.1,0.1,0.2,0.1,0.3c0,0.1,0,0.3-0.1,0.4c-0.1,0.1-0.2,0.2-0.3,0.2C190.1,140.6,190,140.6,189.9,140.6z
		 M192.2,140.6c-0.2,0-0.3-0.1-0.4-0.2c-0.1-0.1-0.2-0.3-0.2-0.5c0-0.1,0-0.3,0.1-0.6c0-0.3,0.1-0.6,0.2-0.9
		c0.1-0.4,0.1-0.7,0.2-1.2s0.1-0.8,0.2-1.3c0.1-0.4,0.1-0.9,0.2-1.3l0.4,0.4c0,0-0.1,0-0.1-0.1c-0.1,0-0.1,0-0.2,0
		c-0.1,0-0.2,0-0.3,0c-0.1,0-0.2,0.1-0.3,0.1l-0.1-0.3c0.2-0.2,0.4-0.3,0.6-0.4s0.4-0.1,0.6-0.1c0.2,0,0.3,0.1,0.4,0.2
		c0.1,0.1,0.1,0.2,0.1,0.4c0,0.1,0,0.3-0.1,0.5c0,0.2-0.1,0.5-0.1,0.8c-0.1,0.3-0.1,0.6-0.2,1c-0.1,0.3-0.1,0.7-0.2,1
		c-0.1,0.3-0.1,0.6-0.1,0.9c0,0.3-0.1,0.5-0.1,0.6c0,0.2,0.1,0.3,0.2,0.3c0,0,0.1,0,0.2,0c0.1,0,0.1,0,0.2-0.1l0.2,0.3
		c-0.1,0.1-0.2,0.2-0.3,0.3c-0.1,0.1-0.3,0.1-0.4,0.2C192.4,140.6,192.3,140.6,192.2,140.6z M195.1,140.6c-0.4,0-0.8-0.1-1-0.4
		c-0.2-0.3-0.4-0.6-0.4-1c0-0.3,0.1-0.7,0.2-1c0.1-0.3,0.3-0.6,0.5-0.8c0.2-0.2,0.5-0.4,0.7-0.6c0.3-0.1,0.6-0.2,0.9-0.2
		c0.4,0,0.8,0.1,1,0.4c0.2,0.3,0.4,0.6,0.4,1c0,0.3-0.1,0.7-0.2,1c-0.1,0.3-0.3,0.6-0.5,0.8c-0.2,0.2-0.5,0.4-0.8,0.6
		C195.7,140.6,195.4,140.6,195.1,140.6z M195.4,140.2c0.2,0,0.3-0.1,0.5-0.3c0.1-0.2,0.3-0.4,0.4-0.7c0.1-0.3,0.1-0.6,0.1-1
		c0-0.4-0.1-0.6-0.2-0.9c-0.1-0.2-0.3-0.3-0.4-0.3c-0.1,0-0.3,0.1-0.4,0.2c-0.1,0.1-0.2,0.3-0.3,0.4c-0.1,0.2-0.2,0.4-0.2,0.6
		c-0.1,0.2-0.1,0.5-0.1,0.8c0,0.4,0.1,0.6,0.2,0.9C195.1,140.1,195.2,140.2,195.4,140.2z M198.9,142.7c-0.2,0-0.4,0-0.6-0.1
		c-0.2-0.1-0.3-0.2-0.5-0.3c-0.1-0.1-0.2-0.3-0.2-0.5c0-0.1,0-0.3,0.1-0.4c0.1-0.1,0.1-0.2,0.3-0.2c0.1,0,0.2-0.1,0.3-0.1
		c0.1,0,0.1,0,0.2,0c0.1,0,0.1,0,0.1,0c0,0,0,0.1,0,0.1c0,0,0,0.1,0,0.1c0,0.2,0,0.4,0.1,0.5c0.1,0.1,0.2,0.2,0.4,0.2
		c0.2,0,0.4-0.1,0.6-0.2c0.2-0.2,0.3-0.4,0.4-0.8c0.1-0.4,0.1-0.9,0.1-1.5h0c-0.1,0.3-0.3,0.6-0.5,0.7c-0.2,0.2-0.5,0.3-0.7,0.3
		c-0.3,0-0.6-0.1-0.8-0.3s-0.3-0.6-0.3-1.1c0-0.4,0.1-0.7,0.2-1c0.1-0.3,0.3-0.6,0.5-0.8s0.4-0.4,0.7-0.5c0.3-0.1,0.6-0.2,0.9-0.2
		c0.2,0,0.5,0,0.7,0.1s0.4,0.2,0.5,0.4l-0.1,0.3c-0.1-0.1-0.2-0.1-0.3-0.2c-0.2-0.1-0.4-0.1-0.7-0.1c-0.2,0-0.4,0.1-0.5,0.2
		c-0.2,0.1-0.3,0.3-0.4,0.5s-0.2,0.4-0.2,0.7c-0.1,0.2-0.1,0.5-0.1,0.7c0,0.2,0,0.4,0,0.5c0,0.1,0.1,0.2,0.2,0.3
		c0.1,0.1,0.2,0.1,0.3,0.1c0.1,0,0.3-0.1,0.4-0.2c0.1-0.1,0.2-0.3,0.3-0.5c0.1-0.2,0.2-0.5,0.3-0.9c0.1-0.4,0.2-0.8,0.2-1.4l0.6-0.4
		c0.1,0,0.3,0,0.3,0s0.1,0.1,0.1,0.2c0,0,0,0.1-0.1,0.3c0,0.1-0.1,0.3-0.1,0.5c-0.1,0.2-0.1,0.4-0.2,0.7c-0.1,0.2-0.1,0.5-0.1,0.7
		c0,0.2-0.1,0.5-0.1,0.6c0,0.9-0.2,1.7-0.5,2.2C200.3,142.5,199.7,142.7,198.9,142.7z M204.7,141.2L204.7,141.2
		c-0.6,0-1-0.2-1.4-0.6s-0.6-1-0.6-1.7V136c0-0.7,0.2-1.3,0.6-1.7s0.9-0.6,1.4-0.6h0.1v0.7c-0.5,0.1-0.7,0.3-0.7,0.7v4.9
		c0,0.4,0.2,0.6,0.7,0.7V141.2z M206,133.6L206,133.6c0.6,0,1,0.2,1.4,0.6c0.4,0.4,0.6,1,0.6,1.7v2.9c0,0.7-0.2,1.3-0.6,1.7
		c-0.4,0.4-0.9,0.6-1.4,0.6H206v-0.7c0.5-0.1,0.7-0.3,0.7-0.7l0-4.9c0-0.4-0.2-0.6-0.7-0.7L206,133.6L206,133.6z"/>
	<path class="st13" d="M198.3,179.9H154c-2.4,0-4.4-0.9-6.1-2.6c-1.7-1.7-2.6-3.8-2.6-6.3c0-2.5,0.9-4.5,2.6-6.3
		c1.7-1.7,3.8-2.6,6.1-2.6h44.3V179.9z"/>
	<g>
		<path class="st14" d="M194.4,167.3l-4,4h0L194.4,167.3z"/>
		<polygon class="st14" points="190.3,171.4 189.5,170.6 192.7,167.3 189.5,164.1 190.3,163.3 194.4,167.3 		"/>
	</g>
	<path class="st2" d="M175,176.9V165h5.3c0.7,0,1.3,0.3,1.9,0.8c0.5,0.5,0.8,1.1,0.8,1.9v0.7c0,0.8-0.2,1.4-0.7,1.8
		c-0.4,0.4-1.1,0.7-2,0.8c0.9,0,1.5,0.3,2,0.8c0.4,0.5,0.7,1.1,0.7,1.8v0.7c0,0.7-0.3,1.3-0.8,1.8c-0.5,0.5-1.1,0.8-1.8,0.8H175z
		 M177.6,170.3h1.3c0.4,0,0.7-0.1,0.9-0.4c0.3-0.3,0.4-0.6,0.4-0.9v-1.3c0-0.4-0.1-0.7-0.4-0.9c-0.3-0.3-0.6-0.4-0.9-0.4h-1.3V170.3
		z M177.6,175.5h1.3c0.4,0,0.7-0.1,0.9-0.4c0.3-0.3,0.4-0.6,0.4-0.9v-1.3c0-0.9-0.4-1.3-1.3-1.3h-1.3V175.5z"/>
	<g>
		<path class="st2" d="M155.2,176.9V165h2.6v10.5h3.9v1.3H155.2z"/>
	</g>
	<path class="st2" d="M164.4,176.9v-9.2c0-0.7,0.3-1.3,0.8-1.9c0.5-0.5,1.1-0.8,1.9-0.8h2.6c0.7,0,1.3,0.3,1.9,0.8
		c0.5,0.5,0.8,1.1,0.8,1.9v9.2h-2.6v-5.3h-2.6v5.3H164.4z M167.1,170.3h2.6v-2.6c0-0.4-0.1-0.7-0.4-0.9c-0.3-0.3-0.6-0.4-0.9-0.4
		c-0.4,0-0.7,0.1-0.9,0.4c-0.3,0.3-0.4,0.6-0.4,0.9V170.3z"/>
	<path class="st10" d="M145.2,202.4v-3.8h3.5v3.8H145.2z M145.2,208.1h3.5v3.8c0,2.3-1.2,3.6-3.5,3.8v-1.9c1.1,0,1.7-0.7,1.8-1.9
		h-1.8V208.1z"/>
	<circle class="st0" cx="196.1" cy="193.9" r="3.9"/>
	<circle class="st7" cx="191" cy="201.7" r="2"/>
	<circle class="st7" cx="187.7" cy="196" r="2"/>
	<g>
		<defs>
			<filter id="Adobe_OpacityMaskFilter" filterUnits="userSpaceOnUse" x="49.6" y="149.9" width="35.3" height="51.7">
				<feFlood  style="flood-color:white;flood-opacity:1" result="back"/>
				<feBlend  in="SourceGraphic" in2="back" mode="normal"/>
			</filter>
		</defs>
		<mask maskUnits="userSpaceOnUse" x="49.6" y="149.9" width="35.3" height="51.7" id="SVGID_1_">
			<g class="st15">
				<g>
					<g>
						<path class="st0" d="M55.5,150c0,5.6,0,11.2,0,16.9c1.8-2.4,3.7-4.8,5.5-7.2c-4.1,1.1-7.4,3.2-10.7,5.8
							c-2.7,2.1-5.8,4.8-6.6,8.3c-0.9,3.8,1.2,8.3,5.2,9.2c3.8,0.9,8.3-1.2,9.2-5.2c0-0.1,0-0.2,0.1-0.3c-0.3,0.6-0.5,1.2-0.8,1.8
							c0.1-0.2,0.2-0.3,0.3-0.5c0.3-0.7-0.8,1-0.8,1c0.4-0.3,0.7-0.8,1-1.1c0.7-0.8,1.6-1.5,2.4-2.1c0.4-0.3,0.7-0.6,1.1-0.9
							c0,0-1.7,1.3-0.9,0.7c0.1-0.1,0.3-0.2,0.4-0.3c1-0.7,2.1-1.3,3.3-1.8c-0.6,0.3-1.2,0.5-1.8,0.8c0.8-0.4,1.7-0.7,2.6-0.9
							c3.2-0.9,5.5-3.9,5.5-7.2c0-5.6,0-11.2,0-16.9c0-3.9-3.4-7.7-7.5-7.5C59,142.7,55.5,145.8,55.5,150L55.5,150z"/>
					</g>
				</g>
			</g>
		</mask>
		<path class="st16" d="M85,184c0,6.6-3.7,12.5-9.1,15.5c-2.5,1.4-5.4,2.2-8.5,2.2c-3.1,0-6-0.8-8.6-2.2c-5.4-3-9.1-8.8-9.1-15.5
			c0-8.3,5.7-15.2,13.4-17.1v-16.9h8.5v16.9C79.2,168.8,85,175.7,85,184z"/>
		<defs>
			
				<filter id="Adobe_OpacityMaskFilter_00000075876750058662899170000015170545498029085361_" filterUnits="userSpaceOnUse" x="32.6" y="157" width="26.5" height="51.7">
				<feFlood  style="flood-color:white;flood-opacity:1" result="back"/>
				<feBlend  in="SourceGraphic" in2="back" mode="normal"/>
			</filter>
		</defs>
		
			<mask maskUnits="userSpaceOnUse" x="32.6" y="157" width="26.5" height="51.7" id="SVGID_00000131333130218497472420000007138843628993986719_">
			<g style="filter:url(#Adobe_OpacityMaskFilter_00000075876750058662899170000015170545498029085361_);">
				<g>
					<g>
						<path class="st13" d="M34.9,156.9c0,4.1,0,8.1,0.1,12.2c3.2-2.4,6.3-4.8,9.5-7.2c-2.4-0.3-4.1-0.4-6.5,0
							c-1.5,0.3-3,0.9-4.3,1.7c-2.6,1.5-5.1,3.9-6.6,6.5c-2.1,3.6-2.2,8.1-2.1,12.2c0.1,3.7,0.1,7.5,0.1,11.2c0,2,0,4,0,6
							c0,3.9,3.4,7.7,7.5,7.5c4.1-0.2,7.5-3.3,7.5-7.5c0-3.9,0-7.8,0-11.7c0-3.6-0.3-7.2,0.1-10.7c-0.1,0.7-0.2,1.3-0.3,2
							c0.1-0.9,0.3-1.8,0.6-2.7c-0.3,0.6-0.5,1.2-0.8,1.8c0.2-0.4,0.4-0.6,0.6-1c0.5-0.7-1.2,1.4-0.4,0.5c0.2-0.2,0.4-0.4,0.6-0.7
							c0.2-0.2,0.4-0.3,0.5-0.5c0.6-0.6-1.5,1-0.5,0.4c0.5-0.3,1-0.6,1.6-0.8c-0.6,0.3-1.2,0.5-1.8,0.8c0.6-0.2,1.1-0.4,1.8-0.5
							c-0.7,0.1-1.3,0.2-2,0.3c0.6-0.1,1.3-0.1,1.9,0c-0.7-0.1-1.3-0.2-2-0.3c0.1,0,0.3,0,0.4,0.1c2.5,0.3,4.5,0.2,6.5-1.3
							c1.8-1.4,3-3.5,3-5.9c0-4.1,0-8.1-0.1-12.2c0-3.9-3.4-7.7-7.5-7.5C38.4,149.6,34.9,152.7,34.9,156.9L34.9,156.9z"/>
					</g>
				</g>
			</g>
		</mask>
		<path style="mask:url(#SVGID_00000131333130218497472420000007138843628993986719_);fill:#8FB0F0;" d="M59.1,177.8v25.1
			c0,1.6-0.6,3-1.7,4.1c-1.1,1.2-2.5,1.7-4.1,1.7H38.5c-1.6,0-3-0.6-4.1-1.7c-1.2-1.2-1.7-2.5-1.7-4.1v-25.1c0-2.4,0.9-4.5,2.6-6.2
			c1.7-1.7,3.8-2.6,6.2-2.6H42V157h7.8V169h0.5c2.4,0,4.5,0.9,6.2,2.6C58.3,173.3,59.1,175.4,59.1,177.8z"/>
		<defs>
			
				<filter id="Adobe_OpacityMaskFilter_00000146464230688586816820000007022628899095945111_" filterUnits="userSpaceOnUse" x="70.9" y="157.4" width="26.5" height="51.7">
				<feFlood  style="flood-color:white;flood-opacity:1" result="back"/>
				<feBlend  in="SourceGraphic" in2="back" mode="normal"/>
			</filter>
		</defs>
		
			<mask maskUnits="userSpaceOnUse" x="70.9" y="157.4" width="26.5" height="51.7" id="SVGID_00000063619093434166755090000016375324645862268565_">
			<g style="filter:url(#Adobe_OpacityMaskFilter_00000146464230688586816820000007022628899095945111_);">
				<g>
					<g>
						<path class="st12" d="M75.3,157.4c0,7.5,0,15.1,0,22.6c0,1.1,0,2.1,0,3.2c1.2-1.6,2.4-3.2,3.7-4.8c-3,1.2-5.8,2.6-8.1,5
							c-2.4,2.5-4,5.7-4.6,9.1c-0.5,2.6,0.7,5.5,3.5,6.2c2.5,0.6,5.6-0.7,6.2-3.5c0.1-0.6,0.2-1.2,0.4-1.8c0.1-0.3,0.2-0.5,0.3-0.8
							c0.3-1.1-0.5,1,0,0c0.3-0.5,0.5-1,0.8-1.4c0.1-0.1,0.2-0.3,0.3-0.4c0.2-0.3,0.1-0.2-0.3,0.3c0-0.2,0.5-0.5,0.6-0.6
							c0.2-0.2,0.4-0.4,0.6-0.6c0.1-0.1,0.9-0.8,0.3-0.3c-0.5,0.5,0.3-0.2,0.4-0.3c0.3-0.2,0.7-0.5,1-0.6c0.2-0.1,0.3-0.2,0.5-0.3
							c0.5-0.3-1.1,0.4-0.3,0.1c0.3-0.1,0.7-0.3,1-0.4c2.1-0.8,3.7-2.5,3.7-4.8c0-7.5,0-15.1,0-22.6c0-1.1,0-2.1,0-3.2
							c0-2.6-2.3-5.1-5-5C77.6,152.5,75.3,154.6,75.3,157.4L75.3,157.4z"/>
					</g>
				</g>
			</g>
		</mask>
		<path style="mask:url(#SVGID_00000063619093434166755090000016375324645862268565_);fill:#54BBC0;" d="M97.4,195.9
			c0-6-3.9-11-9.4-12.7v-25.8h-7.8v25.8c-5.4,1.7-9.4,6.7-9.4,12.7c0,0.3,0,0.6,0,0.8c0,0.2,0,0.4,0,0.6v5.9c0,1.6,0.6,3,1.7,4.1
			c1.2,1.2,2.5,1.7,4.2,1.7h6.7c0,0,0,0,0,0h1.3c0,0,0,0,0,0h6.7c1.6,0,3-0.6,4.2-1.7c1.2-1.2,1.7-2.5,1.7-4.1v-5.9
			c0-0.2,0-0.4,0-0.6C97.4,196.4,97.4,196.2,97.4,195.9z M84.2,191.5L84.2,191.5L84.2,191.5C84.2,191.4,84.2,191.4,84.2,191.5
			L84.2,191.5L84.2,191.5z"/>
	</g>
	<g>
		<path id="feuilles_00000154410082856004091720000000661596879363513472_" class="st21" d="M168.6,224c-0.2,0-0.5,0-0.7-0.1
			c0.5-0.2,0.7-0.8,0.5-1.2c-0.2,0.4-0.6,0.8-1.1,0.9c-0.3-0.3-0.5-0.8-0.4-1.2c0-0.1,0-0.1,0-0.2l0,0c0.2-0.7,0.7-1.1,1.5-1
			c0.5-0.1,0.7-0.5,0.7-0.9v0c0-0.1,0-0.1,0.1-0.2c0.1,0,0.2,0,0.2,0.1c0,0,0,0,0,0v0c0.5,0.9,0.7,2.2,0.4,2.9l0,0
			C169.7,223.6,169.2,224,168.6,224z M166.2,227.8c0.3-0.2,0.7-0.4,0.9-0.8c-0.9,0.1-1.8-0.5-1.9-1.4c0.6,0.5,1.6,0.7,2.4,0.4
			c0.2-0.7,0-1.6-0.4-2.2c-0.1-0.1-0.2-0.2-0.2-0.3l0,0c-0.9-0.9-2.1-1-3.1-0.3c-0.9,0.3-1.5-0.1-1.8-0.7c0,0,0,0,0-0.1
			c-0.1-0.1-0.2-0.1-0.3-0.1c-0.2,0-0.3,0.2-0.3,0.3c0,0,0,0,0,0.1v0c0.1,1.8,0.9,3.9,1.9,4.7l0,0
			C164.1,228.1,165.2,228.3,166.2,227.8L166.2,227.8z"/>
		<path id="ornement_00000042712976547152494970000005863954319229961913_" class="st22" d="M184.5,216.6c-0.1,0.1-0.3,0.2-0.4,0.3
			c-0.1-0.6-0.3-1-0.8-1.5c-0.4-0.4-0.9-0.7-1.5-0.8c0.1-0.2,0.2-0.3,0.3-0.4c0.6-0.6,1.7-0.6,2.3,0
			C185.1,214.9,185.1,216,184.5,216.6z M180.5,244.2c-0.2-0.2-0.4-0.3-0.6-0.3h-2.5c0.5,0,0.9-0.4,0.9-0.9c0-0.2-0.1-0.5-0.3-0.6
			c-0.2-0.2-0.4-0.3-0.6-0.3h-3.1c-0.5,0-0.9,0.4-0.9,0.9c0,0.2,0.1,0.5,0.3,0.6c0.2,0.2,0.4,0.3,0.6,0.3h-2.5
			c-0.5,0-0.9,0.4-0.9,0.9c0,0.2,0.1,0.5,0.3,0.6c0.2,0.2,0.4,0.3,0.6,0.3h8.1c0.5,0,0.9-0.4,0.9-0.9
			C180.8,244.6,180.7,244.4,180.5,244.2z"/>
		<path id="microscope_00000172416362717587414840000004102983455543643322_" class="st2" d="M187.5,230.5c0,0.7-0.1,1.4-0.2,2.1
			c0,0.1,0,0.2-0.1,0.3c0,0.1,0,0.1,0,0.2c-0.5,2.2-1.6,4.1-3.1,5.6c-1.8,1.8-4.2,3-6.9,3.4c-0.2,0-0.4,0-0.5,0c-0.1,0-0.2,0-0.3,0
			c-0.2,0-0.4,0-0.6,0h-0.3c-0.1,0-0.2,0-0.3,0c-0.1,0-0.2,0-0.3,0c-0.1,0-0.2,0-0.3,0c-0.1,0-0.2,0-0.3,0c-0.2,0-0.4,0-0.5-0.1
			c-0.1,0-0.3-0.1-0.4-0.1c0,0-0.1,0-0.1,0c-0.2,0-0.3-0.1-0.5-0.1c0,0,0,0,0,0c-2.5-0.7-4.7-2.2-6.3-4.2c-0.1-0.1-0.1-0.2-0.2-0.2
			c0-0.1-0.1-0.1-0.2-0.2c-0.1-0.1-0.1-0.2-0.2-0.3c-0.1-0.1-0.1-0.2-0.2-0.3c0-0.1-0.1-0.2-0.2-0.3l0,0c0,0,0,0,0,0
			c0-0.1-0.1-0.1-0.1-0.2c0-0.1-0.1-0.2-0.1-0.3c0-0.1-0.1-0.1-0.1-0.2c-0.1-0.3-0.3-0.6-0.4-0.9c-0.1-0.2-0.1-0.4-0.2-0.5
			c-0.3-1-0.3-2,0.1-3c0-0.1,0.1-0.2,0.1-0.3c0.2-0.6,0.6-1.1,1-1.6c0.1-0.1,0.2-0.2,0.3-0.2c0.3,0,0.5,0.2,0.5,0.4c0,0,0,0,0,0
			c0,0.1,0,0.2,0,0.2c0,0.1,0,0.1,0,0.2c0,0.1,0,0.2,0,0.2c0,0.1,0,0.2,0,0.3c0,1.7,0.5,3.3,1.3,4.7c0.1,0.1,0.2,0.2,0.2,0.4
			c0.1,0.1,0.2,0.2,0.2,0.4c0.1,0.1,0.1,0.2,0.2,0.3c0,0,0.1,0.1,0.1,0.2c0.1,0.1,0.2,0.2,0.2,0.2c1.7,1.8,4.1,3,6.7,3
			c0.1,0,0.2,0,0.2,0c0.1,0,0.3,0,0.4,0c0.1,0,0.1,0,0.2,0c0.1,0,0.1,0,0.2,0c0.1,0,0.1,0,0.2,0c0.2,0,0.3,0,0.4-0.1
			c0.1,0,0.2,0,0.3-0.1c0.2,0,0.4-0.1,0.5-0.1c2.5-0.7,4.6-2.5,5.7-4.8c0.1-0.2,0.2-0.3,0.2-0.5c0-0.1,0.1-0.2,0.1-0.3
			c0-0.1,0-0.1,0.1-0.2c0,0,0-0.1,0-0.2c0-0.1,0-0.2,0.1-0.2c0-0.1,0-0.1,0-0.2c0,0,0-0.1,0-0.1c0-0.1,0-0.1,0-0.2
			c0-0.2,0.1-0.3,0.1-0.4c0-0.1,0-0.2,0-0.2c0-0.1,0-0.1,0-0.2c0-0.2,0.1-0.5,0.1-0.8c0-0.1,0-0.1,0-0.2c0-0.1,0-0.2,0-0.2
			c0-0.1,0-0.2,0-0.4c0-0.1,0-0.1,0-0.2c0-0.1,0-0.1,0-0.2c0-0.1,0-0.2,0-0.4c0-0.1,0-0.1,0-0.2c0-0.1,0-0.1,0-0.2
			c0-0.1,0-0.2-0.1-0.3c0-0.1,0-0.2-0.1-0.4c0-0.1,0-0.1,0-0.2s0-0.1-0.1-0.2c0,0,0-0.1,0-0.1c0-0.1,0-0.1,0-0.2l0,0
			c-0.1-0.3-0.2-0.5-0.3-0.7c0-0.1,0-0.1-0.1-0.2c0,0,0-0.1-0.1-0.1c0,0,0-0.1-0.1-0.1c0,0,0-0.1,0-0.1c0-0.1-0.1-0.1-0.1-0.2
			c-0.1-0.1-0.1-0.3-0.2-0.4c0,0-0.1-0.1-0.1-0.2c0,0-0.1-0.1-0.1-0.2c-0.1-0.2-0.3-0.4-0.4-0.6c0,0,0,0,0,0c0,0-0.1-0.1-0.1-0.1
			c0,0-0.1-0.1-0.1-0.1c-0.4-0.5-0.9-1-1.4-1.4c0,0-0.1-0.1-0.2-0.1c-0.3-0.2-0.6-0.4-0.9-0.6l0,0l-0.7,0.7l-5,5
			c-0.4,0.4-1,0.4-1.4,0l-2.4-2.5c-0.4-0.4-0.4-1,0-1.4l2.7-2.7l6.3-6.3c0.5-0.5,1.1-0.8,1.9-0.8c0.2,0,0.3,0,0.5,0
			c0.6,0.1,1.1,0.3,1.5,0.8c0.4,0.4,0.7,0.9,0.8,1.5c0,0.2,0,0.3,0,0.5c0,0.8-0.3,1.4-0.8,1.9l-1.4,1.4c0,0,0,0,0,0
			c0.1,0.1,0.2,0.1,0.3,0.2c0.4,0.3,0.9,0.6,1.3,1c0,0,0.1,0.1,0.1,0.1c0.1,0.1,0.2,0.2,0.3,0.3l0.1,0.1c0.1,0.1,0.1,0.1,0.2,0.2
			c0.1,0.1,0.2,0.2,0.2,0.2c0.2,0.2,0.3,0.3,0.4,0.5c0.1,0.1,0.1,0.2,0.2,0.3c0,0,0,0,0,0c0,0.1,0.1,0.1,0.1,0.2
			C186.6,225.6,187.5,228,187.5,230.5z"/>
		<path id="centre_00000086681698477704201620000000717986023894000039_" class="st23" d="M184.6,230.5c0,0.1,0,0.2,0,0.2
			c0,0.1,0,0.1,0,0.2c0,0.3,0,0.5-0.1,0.8c0,0.1,0,0.1,0,0.2c0,0.1,0,0.2,0,0.2c0,0.2-0.1,0.3-0.1,0.4c0,0.1,0,0.1,0,0.2
			c0,0,0,0.1,0,0.1c0,0.1,0,0.1,0,0.2c0,0.1,0,0.2-0.1,0.2c0,0,0,0.1,0,0.2c0,0.1,0,0.1-0.1,0.2c0,0.1-0.1,0.2-0.1,0.3
			c-0.1,0.2-0.1,0.3-0.2,0.5c-1.1,2.3-3.2,4.1-5.7,4.8c-0.2,0-0.4,0.1-0.5,0.1c-0.1,0-0.2,0-0.3,0.1c-0.2,0-0.3,0-0.4,0.1
			c-0.1,0-0.1,0-0.2,0c-0.1,0-0.1,0-0.2,0c-0.1,0-0.1,0-0.2,0c-0.1,0-0.3,0-0.4,0c-0.1,0-0.2,0-0.2,0c-2.7,0-5.1-1.1-6.7-3
			c-0.1-0.1-0.2-0.2-0.2-0.2c0,0-0.1-0.1-0.1-0.2c-0.1-0.1-0.1-0.2-0.2-0.3c-0.1-0.1-0.2-0.2-0.2-0.4c-0.1-0.1-0.2-0.2-0.2-0.4
			c-0.8-1.4-1.3-3-1.3-4.7c0-0.1,0-0.2,0-0.3c0-0.1,0-0.2,0-0.2c0-0.1,0-0.1,0-0.2c0-0.1,0-0.2,0-0.2c0-0.1,0-0.2,0-0.3
			c0.5-3.6,3.1-6.5,6.6-7.4l-2.7,2.7c-0.4,0.4-0.4,1,0,1.4l2.5,2.5c0.4,0.4,1,0.4,1.4,0l5-5l0.7-0.7l0,0c0.3,0.2,0.6,0.4,0.9,0.6
			c0,0,0.1,0.1,0.2,0.1c0.5,0.4,1,0.9,1.4,1.4c0,0,0.1,0.1,0.1,0.1c0,0,0.1,0.1,0.1,0.1c0,0,0,0,0,0c0.2,0.2,0.3,0.4,0.4,0.6
			c0,0,0.1,0.1,0.1,0.2c0,0,0.1,0.1,0.1,0.2c0.1,0.1,0.2,0.3,0.2,0.4c0,0.1,0.1,0.1,0.1,0.2c0,0,0,0.1,0,0.1s0,0.1,0.1,0.1
			c0,0,0,0.1,0.1,0.1c0,0.1,0,0.1,0.1,0.2c0.1,0.2,0.2,0.5,0.3,0.7c0,0.1,0,0.1,0,0.2c0,0,0,0.1,0,0.1c0,0.1,0,0.1,0.1,0.2
			c0,0.1,0,0.1,0,0.2c0,0.1,0.1,0.2,0.1,0.4c0,0.1,0,0.2,0.1,0.3c0,0.1,0,0.1,0,0.2c0,0.1,0,0.1,0,0.2c0,0.1,0,0.2,0,0.4
			c0,0.1,0,0.1,0,0.2c0,0.1,0,0.1,0,0.2C184.6,230.3,184.6,230.4,184.6,230.5z M183.7,234.5c0.1-0.2,0.2-0.3,0.2-0.5
			C183.8,234.1,183.8,234.3,183.7,234.5z"/>
	</g>
</g>
</svg>
