<?xml version="1.0" encoding="utf-8"?>
<!-- Generator: Adobe Illustrator 27.1.0, SVG Export Plug-In . SVG Version: 6.00 Build 0)  -->
<svg version="1.1" id="logo" xmlns="http://www.w3.org/2000/svg" xmlns:xlink="http://www.w3.org/1999/xlink" x="0px" y="0px"
	 viewBox="0 0 378.3 425.3" style="enable-background:new 0 0 378.3 425.3;" xml:space="preserve">
<style type="text/css">
	.st0{fill:#FCCE5C;}
	.st1{fill:#8FB0F3;}
	.st2{fill:#FFFFFF;}
</style>
<g id="logoLab">
	<path id="zero" class="st0" d="M283.3,330.8c0,25.5-9.2,47.6-27.7,66.3s-40.7,28-66.5,28H94.3c-25.8,0-48-9.2-66.6-27.7
		C9.2,378.9,0,356.7,0,330.9V94.4c0-25.9,9.2-48,27.7-66.5C46.3,9.4,68.5,0.1,94.3,0.1v330.7c0,12.7,4.6,23.6,13.9,32.9
		c9.2,9.3,20.4,14,33.5,14s24.3-4.7,33.5-14s13.9-20.2,13.9-32.9H283.3z"/>
	<polygon id="un" class="st1" points="283.3,0.1 283.3,330.8 189.1,330.8 189.1,94 94.3,94 94.3,0.1 	"/>
	<path id="crochet" class="st2" d="M63.8,94.4v273h21.1v10.2H32.4V83.9H85v10.6C85,94.4,63.8,94.4,63.8,94.4z"/>
	<path id="accolade" class="st2" d="M267,208.3h-5.4v-63.2c-0.3-32.9-32.6-62.6-63.2-62.6v10.6c13.2,0,31.2,26.5,31.7,52.6v64.4
		c7.1,5.3,12.3,11.8,15.9,19.1c-3.5,7.9-8.8,14.4-15.9,19.7v64.7c0,26.4-17.3,52.3-31.7,52.3v10.6c31.7,0,63.2-29.7,63.2-62.9v-62.9
		h5.4V208.3L267,208.3z"/>
	<path id="atome" class="st2" d="M141.6,67.8L141.6,67.8c-11.2,0-20.3-9.1-20.3-20.3l0,0c0-11.2,9.1-20.3,20.3-20.3l0,0
		c11.2,0,20.3,9.1,20.3,20.3l0,0C162,58.7,152.9,67.8,141.6,67.8z"/>
	<path id="laboranth" class="st0" d="M378.2,425.3h-55.1v-12.2h49v-18.4h6.1V425.3z M378.2,382.5h-42.8c-3.3,0-6.2-1.2-8.6-3.6
		s-3.6-5.3-3.6-8.6V358c0-3.3,1.2-6.2,3.6-8.6s5.3-3.6,8.6-3.6h42.8V358h-24.5v12.3h24.5V382.5L378.2,382.5z M347.7,370.2v-12.3
		h-12.3c-1.7,0-3.1,0.6-4.3,1.8c-1.2,1.2-1.8,2.7-1.8,4.3c0,1.7,0.6,3.1,1.8,4.3s2.6,1.8,4.3,1.8L347.7,370.2L347.7,370.2z
		 M378.2,333.5h-55.1V309c0-3.3,1.2-6.2,3.6-8.6s5.3-3.6,8.6-3.6h3.1c3.6,0,6.4,1,8.4,3.1c2,2,3.3,5.1,3.8,9.2
		c0-4.1,1.2-7.1,3.7-9.2c2.5-2,5.3-3.1,8.5-3.1h3.1c3.3,0,6.2,1.2,8.6,3.6s3.6,5.3,3.6,8.6L378.2,333.5L378.2,333.5z M347.7,321.3
		v-6.1c0-1.7-0.6-3.1-1.8-4.3c-1.2-1.2-2.7-1.8-4.3-1.8h-6.1c-1.7,0-3.1,0.6-4.3,1.8c-1.2,1.2-1.8,2.7-1.8,4.3v6.1H347.7
		L347.7,321.3z M372.1,321.3v-6.1c0-1.7-0.6-3.1-1.8-4.3c-1.2-1.2-2.6-1.8-4.3-1.8h-6.1c-4.1,0-6.1,2-6.1,6.1v6.1L372.1,321.3
		L372.1,321.3z M323.2,272.4v-12.3c0-3.3,1.2-6.2,3.6-8.6s5.3-3.6,8.6-3.6H366c3.3,0,6.2,1.2,8.6,3.6s3.6,5.3,3.6,8.6v12.3
		c0,3.3-1.2,6.2-3.6,8.6s-5.3,3.6-8.6,3.6h-30.6c-3.3,0-6.2-1.2-8.6-3.6C324.4,278.6,323.2,275.7,323.2,272.4z M335.4,272.4H366
		c1.6,0,3.1-0.6,4.3-1.8c1.2-1.2,1.8-2.6,1.8-4.3c0-1.7-0.6-3.2-1.8-4.3c-1.2-1.2-2.6-1.8-4.3-1.8h-30.6c-1.7,0-3.1,0.6-4.3,1.8
		c-1.2,1.2-1.8,2.7-1.8,4.3c0,1.7,0.6,3.1,1.8,4.3S333.7,272.4,335.4,272.4z M326.8,104.7c-2.4,2.4-3.6,5.3-3.6,8.6v12.2
		c0,3.4,1.2,6.3,3.6,8.6c2.4,2.4,5.3,3.6,8.6,3.6h42.8v-12.2h-42.8c-1.7,0-3.1-0.6-4.3-1.8c-1.2-1.2-1.8-2.6-1.8-4.3
		c0-1.6,0.6-3.1,1.8-4.3c1.2-1.2,2.6-1.8,4.3-1.8h42.8v-12.2h-42.8C332.1,101.1,329.2,102.3,326.8,104.7z M378.2,186.7h-42.8
		c-3.3,0-6.2-1.2-8.6-3.6s-3.6-5.3-3.6-8.6v-12.3c0-3.3,1.2-6.2,3.6-8.6c2.4-2.4,5.3-3.6,8.6-3.6h42.8v12.2h-24.5v12.3h24.5V186.7
		L378.2,186.7z M347.7,174.5v-12.3h-12.3c-1.7,0-3.1,0.6-4.3,1.8c-1.2,1.2-1.8,2.7-1.8,4.3c0,1.7,0.6,3.1,1.8,4.3
		c1.2,1.2,2.6,1.8,4.3,1.8L347.7,174.5L347.7,174.5z M326.8,104.7c-2.4,2.4-3.6,5.3-3.6,8.6v12.2c0,3.4,1.2,6.3,3.6,8.6
		c2.4,2.4,5.3,3.6,8.6,3.6h42.8v-12.2h-42.8c-1.7,0-3.1-0.6-4.3-1.8c-1.2-1.2-1.8-2.6-1.8-4.3c0-1.6,0.6-3.1,1.8-4.3
		c1.2-1.2,2.6-1.8,4.3-1.8h42.8v-12.2h-42.8C332.1,101.1,329.2,102.3,326.8,104.7z M378.2,82.8h-48.9V95h-6.1V58.3h6.1v12.2h48.9
		C378.2,70.5,378.2,82.8,378.2,82.8z M353.7,40h24.5v12.2h-55V39.9h6.1l18.4,0.1V21.6c0-1.6,0.6-3.1,1.8-4.3
		c1.3-1.2,2.6-1.8,4.3-1.8h24.5v12.2h-18.4c-1.6,0-3.1,0.6-4.3,1.8c-1.3,1.3-1.9,2.7-1.9,4.3C353.7,33.8,353.7,40,353.7,40z
		 M378.3,235.7h-55.2v-24.6c0-3.4,1.2-6.2,3.6-8.6s5.3-3.6,8.6-3.6h3.3c2.7,0,5.4,0.9,7.9,2.8s3.8,5,3.8,9.4V205
		c0-1.7,0.6-3.1,1.8-4.3c1.2-1.2,2.7-1.8,4.3-1.8h21.7v12.2h-18.4c-1.7,0-3.1,0.6-4.3,1.8c-1.2,1.2-1.8,2.7-1.8,4.3v6.2h24.6
		L378.3,235.7L378.3,235.7z M347.7,223.4v-6.2c0-1.7-0.6-3.1-1.8-4.3c-1.2-1.2-2.7-1.8-4.3-1.8h-6.2c-1.7,0-3.1,0.6-4.3,1.8
		c-1.2,1.2-1.8,2.7-1.8,4.3v6.2H347.7z"/>
	<path id="chevron" class="st1" d="M337.1,21.7l-4.4,4.3L315.4,8.7L298.1,26l-4.3-4.4L315.4,0L337.1,21.7z"/>
</g>
</svg>
