<?xml version="1.0" encoding="utf-8"?>
<!-- Generator: Adobe Illustrator 27.1.0, SVG Export Plug-In . SVG Version: 6.00 Build 0)  -->
<svg version="1.1" id="Calque_1" xmlns="http://www.w3.org/2000/svg" xmlns:xlink="http://www.w3.org/1999/xlink" x="0px" y="0px"
	 viewBox="0 0 9.8 8.2" style="enable-background:new 0 0 9.8 8.2;" xml:space="preserve">
<style type="text/css">
	.st0{fill:#0A66C2;}
</style>
<path class="st0" d="M7,7H5.8V5c0-0.6-0.2-0.8-0.6-0.8C5,4.3,4.8,4.4,4.7,4.5C4.6,4.6,4.5,4.8,4.5,5v0.1V7H3.3V3.3h1.2v0.5
	c0.2-0.4,0.7-0.6,1.1-0.6C6.3,3.3,7,3.6,7,4.8L7,7z M1.9,2.6c-0.4,0-0.7-0.3-0.7-0.7c0-0.4,0.3-0.7,0.7-0.7c0.4,0,0.7,0.3,0.7,0.7
	C2.6,2.3,2.3,2.6,1.9,2.6 M2.5,7H1.2V3.3h1.2V7z M7.6,0h-7C0.3,0,0,0.3,0,0.6v7C0,8,0.3,8.2,0.6,8.2h7C8,8.2,8.3,8,8.3,7.6v-7
	C8.3,0.3,8,0,7.6,0 M9.2,7.6L9.2,7.6L9.2,7.6L9.2,7.6L9.2,7.6H9.1c0,0,0,0,0,0V7.4c0,0,0,0,0,0h0.1h0.1c0,0,0,0,0.1,0
	c0,0,0.1,0,0.1,0.1c0,0,0,0.1,0,0.1C9.3,7.6,9.3,7.6,9.2,7.6L9.2,7.6z M9.3,7.7C9.3,7.7,9.3,7.7,9.3,7.7C9.3,7.7,9.3,7.7,9.3,7.7
	c0.1,0,0.1-0.1,0.2-0.1c0,0,0-0.1,0-0.1c0-0.1-0.1-0.1-0.1-0.1c0,0-0.1,0-0.1,0H9c0,0,0,0,0,0v0.6v0c0,0,0,0,0,0h0.1c0,0,0,0,0,0
	V7.7c0,0,0,0,0,0h0.1C9.2,7.7,9.2,7.7,9.3,7.7c-0.1,0.1,0,0.1,0,0.1L9.4,8c0,0,0,0,0,0h0.1C9.4,7.9,9.4,7.8,9.3,7.7 M9.7,7.6
	c0-0.3-0.2-0.5-0.5-0.5C9,7.2,8.7,7.4,8.7,7.6c0,0.3,0.2,0.5,0.5,0.5C9.5,8.1,9.7,7.9,9.7,7.6 M9.2,8.2C8.9,8.2,8.6,8,8.6,7.6
	c0-0.3,0.3-0.6,0.6-0.6s0.6,0.3,0.6,0.6C9.8,8,9.5,8.2,9.2,8.2"/>
</svg>
