<?xml version="1.0" encoding="utf-8"?>
<!-- Generator: Adobe Illustrator 27.1.0, SVG Export Plug-In . SVG Version: 6.00 Build 0)  -->
<svg version="1.1" id="Calque_1" xmlns="http://www.w3.org/2000/svg" xmlns:xlink="http://www.w3.org/1999/xlink" x="0px" y="0px"
	 viewBox="0 0 11.7 8.2" style="enable-background:new 0 0 11.7 8.2;" xml:space="preserve">
<style type="text/css">
	.st0{fill:#FF0000;}
	.st1{fill:#FFFFFF;}
</style>
<g>
	<path class="st0" d="M11.5,1.3L11.5,1.3c-0.1-0.5-0.5-0.9-1-1C9.5,0,5.8,0,5.8,0S2.2,0,1.3,0.2c-0.5,0.1-0.9,0.6-1,1
		C0,2.2,0,4.1,0,4.1S0,6,0.2,7c0.1,0.5,0.5,0.9,1,1c0.9,0.2,4.6,0.2,4.6,0.2s3.6,0,4.6-0.2c0.5-0.1,0.9-0.5,1-1
		c0.2-0.9,0.2-2.9,0.2-2.9S11.7,2.2,11.5,1.3 M4.6,5.8V2.4l3,1.7L4.6,5.8z"/>
	<polygon class="st1" points="4.6,5.8 4.6,2.4 7.7,4.1 	"/>
</g>
</svg>
