<?xml version="1.0" encoding="utf-8"?>
<!-- Generator: Adobe Illustrator 27.1.0, SVG Export Plug-In . SVG Version: 6.00 Build 0)  -->
<svg version="1.1" id="Calque_1" xmlns="http://www.w3.org/2000/svg" xmlns:xlink="http://www.w3.org/1999/xlink" x="0px" y="0px"
	 viewBox="0 0 50 50" style="enable-background:new 0 0 50 50;" xml:space="preserve">
<style type="text/css">
	.st0{fill:#18BEC1;}
	.st1{fill:#87B2F7;}
	.st2{fill:#FCCE5C;}
</style>
<g>
	<polygon class="st0" points="18.3,28.2 20,27 26.1,35.8 24.3,37 	"/>
	<path class="st1" d="M22.7,21L22.7,21c-1.7,5.6-7.7,8.7-13.3,7l0,0c-5.6-1.7-8.7-7.7-7-13.3l0,0c1.7-5.6,7.7-8.7,13.3-7l0,0
		C21.3,9.5,24.4,15.5,22.7,21z"/>
	<path class="st2" d="M36.6,45L36.6,45c-1.2,3.7-5.1,5.8-8.9,4.7l0,0c-3.7-1.2-5.8-5.1-4.7-8.9l0,0c1.2-3.7,5.1-5.8,8.9-4.7l0,0
		C35.7,37.3,37.8,41.3,36.6,45z"/>
	<polygon class="st0" points="23.1,12.7 23.9,14.7 33.8,10.8 33,8.8 	"/>
	<path class="st2" d="M38.9,13.8L38.9,13.8c-3.7-1.2-5.8-5.1-4.7-8.9l0,0c1.2-3.7,5.1-5.8,8.9-4.7l0,0c3.7,1.2,5.8,5.1,4.7,8.9l0,0
		C46.6,12.9,42.6,15,38.9,13.8z"/>
</g>
</svg>
